STARTFONT 2.1
COMMENT This font image translated from Metafont
COMMENT Input file was ``bnr10''
COMMENT DPI was ``360'', usermag ``1000'', blackness ``3''
COMMENT shrink was 1
FONT -*-bengali-medium-r-*-*-*-360-*-*-*-*-*-fontspecific
SIZE 10 360 360
FONTBOUNDINGBOX 90 64 -28 -15
STARTPROPERTIES 4
FONT_ASCENT 49
FONT_DESCENT 4
COPYRIGHT "GNU General Public License"
_XMBDFED_INFO "Edited with xmbdfed 4.5."
ENDPROPERTIES
CHARS 249
STARTCHAR C001
ENCODING 1
SWIDTH 500 0
DWIDTH 25 0
BBX 30 48 -4 -4
BITMAP
80000000
80000000
40000000
78000000
3FFFE000
07FFFC00
00001F00
00000380
000000C0
00000040
00000020
00000020
00000020
0FFFFFFC
0FFFFFFC
000C0000
00040000
0007F800
001FFE00
003F0300
007F0180
007F0080
007E00C0
003C00C0
000000C0
000000C0
000001C0
000001C0
00000380
00000780
01001F00
01C07E00
00FFFC00
003FE000
000C0000
00070000
00018000
0000E000
00003000
00001800
00000C00
00000700
00000180
000000C0
00000060
00000030
00000018
0000000C
ENDCHAR
STARTCHAR C002
ENCODING 2
SWIDTH 600 0
DWIDTH 30 0
BBX 32 45 -1 -1
BITMAP
80000000
80000000
40000000
78000000
3FFFF000
07FFFF00
00000FC0
000000E0
00000030
00000010
00000008
00000008
00000008
7FFFFFFF
7FFFFFFF
06000000
03000000
01000000
07E00000
0FF80000
0FCC0000
0FC20070
0FC300F8
078103F0
000187F0
00018F60
0001BE60
0003FCE0
0003F0E0
0007E0C0
000F80C0
001F00C0
007C00C0
00F800C0
01E000C0
0FC000C0
078000C0
000000C0
000000C0
000000C0
00000040
00000060
00000060
00000060
00000020
ENDCHAR
STARTCHAR C003
ENCODING 3
SWIDTH 600 0
DWIDTH 30 0
BBX 35 43 -4 2
BITMAP
8000000000
8000000000
8000000000
C000000000
7C00000000
3FFFFE0000
03FFFFE000
000001F800
0000001C00
0000000600
0000000200
0000000100
0000000100
0000000100
0FFFFFFFE0
0FFFFFFFE0
0000100000
0000100000
0300100000
0300100000
0300100000
0100100000
0100100000
0100100800
0100101C00
0100103C00
010010F600
018011E600
01801FC300
00801F0300
00C00E0100
00C0000100
0060000100
0060000100
0030000300
0030000300
0018000600
001C000E00
000E003C00
0007C0F800
0003FFF000
0000FFC000
00003F0000
ENDCHAR
STARTCHAR C004
ENCODING 4
SWIDTH 640 0
DWIDTH 32 0
BBX 34 42 -1 2
BITMAP
8000000000
8000000000
4000000000
7800000000
3FFFF80000
07FFFF8000
000007F000
0000007800
0000000C00
0000000400
0000000200
0000000200
0000000200
7FFFFFFFC0
7FFFFFFFC0
0000200000
0000200000
1080200000
1080200000
1080200000
1080200000
1880200000
1880201800
08C0203800
08C0207C00
0C4021EC00
0C4023C400
04403F8600
06603E0600
06601C0200
0320000200
0330000200
01B0000200
0198000600
00D8000600
00EC000C00
007E001C00
003F007800
001F81F000
000FFFE000
0003FF8000
0000FE0000
ENDCHAR
STARTCHAR C005
ENCODING 5
SWIDTH 720 0
DWIDTH 36 0
BBX 30 33 3 -1
BITMAP
78000000
FC060804
FC1F180C
FC3F980C
FC79F80C
F8E0F80C
7FC1F80C
3F87D80C
1F1F180C
003C180C
00F0180C
01E0180C
0380180C
0700180C
0E00180C
1C00180C
3800180C
3E00180C
0F80180C
03C0180C
00F01C0C
00781F0C
001C1B8C
000E18CC
0007186C
0003983C
0001D81C
0000D81C
0000F80C
00007800
00007800
00003800
00001800
ENDCHAR
STARTCHAR C006
ENCODING 6
SWIDTH 640 0
DWIDTH 32 0
BBX 24 32 4 -1
BITMAP
0000FC
0003FE
000FC2
001F03
003C03
003803
007003
007003
00E003
00E003
40DC03
C0FE03
C0FF03
807F03
807F03
803E03
801C03
800003
800003
C00003
C00003
600003
780003
3FFFC3
1FFFFB
07FFFF
00003F
000007
000003
000003
000003
000001
ENDCHAR
STARTCHAR C007
ENCODING 7
SWIDTH 760 0
DWIDTH 38 0
BBX 34 47 3 -1
BITMAP
0018000000
0038000000
0070000000
0060000000
0060000000
0060000000
0070000000
0038000000
003F000000
001FFE0000
000FFFF800
0001FFFE00
000003FF00
0000000F80
0000000380
00007E01C0
0001FF00C0
0007E100C0
000F8180C0
001E0180C0
001C0180C0
0038018080
0038018180
0070018300
0070018E00
606E01FC00
607F01F800
C07F81E000
C03F818000
803F818000
801F018000
800E018000
8000018000
8000018000
C000018000
C000018000
6000018000
7800018000
3FFFE18000
1FFFFD8000
07FFFF8000
00001F8000
0000038000
0000018000
0000018000
0000018000
0000008000
ENDCHAR
STARTCHAR C008
ENCODING 8
SWIDTH 580 0
DWIDTH 29 0
BBX 24 30 2 2
BITMAP
0007F0
001FFC
007FFE
00F80E
01E003
C1C003
C3E003
C3F003
C3F007
C3F00F
C3F00E
C1E1FC
4003FC
6003F8
6003F8
6003FC
2001FC
300006
300002
100003
180003
080003
0C0007
060007
07000E
03801E
01E07C
00FFF8
007FE0
001F80
ENDCHAR
STARTCHAR C014
ENCODING 14
SWIDTH 300 0
DWIDTH 15 0
BBX 16 31 0 0
BITMAP
FFFF
FFFF
00E0
00E0
01C0
01C0
01C0
0380
0380
0380
0380
0380
0380
0380
0380
01C0
01C0
01C0
01C0
01C0
01C0
01C0
01C0
01C0
01C0
0380
0380
0380
0700
0E00
3C00
ENDCHAR
STARTCHAR C015
ENCODING 15
SWIDTH 0 0
DWIDTH 0 0
BBX 24 11 -28 -5
BITMAP
800000
800001
C00001
C00001
600001
700001
3FFFFD
1FFFFF
0FFFFF
000003
000001
ENDCHAR
STARTCHAR C016
ENCODING 16
SWIDTH 600 0
DWIDTH 30 0
BBX 31 35 0 -4
BITMAP
FFFFFFFE
FFFFFFFE
003C0180
003C01C0
007C00C0
007E00E0
007600E0
007700E0
00F300E0
30E180E0
39E0C1E0
1FC07FC0
070FFF00
001FFF00
003F8180
003F8080
003F00C0
001E00C0
000000C0
000001C0
000001C0
00000380
00300780
00181F00
000FFE00
0003F800
0000E000
00003800
00000C00
00000700
00000180
000000C0
00000070
00000018
00000008
ENDCHAR
STARTCHAR C017
ENCODING 17
SWIDTH 620 0
DWIDTH 31 0
BBX 32 32 0 -1
BITMAP
FFFFFFFF
FFFFFFFF
001E0030
001E0038
001F0018
003F001C
003B801C
0039801C
0078C01C
3070601C
18F0383C
0FE00FF8
078003F0
00000030
00000030
00000030
00000030
00000030
001FC030
007FF030
00FFFC30
01F03E30
03F80F30
03F803B0
03F801B0
01F000F0
00E000F0
00000070
00000070
00000030
00000030
00000030
ENDCHAR
STARTCHAR C018
ENCODING 18
SWIDTH 1140 0
DWIDTH 57 0
BBX 58 33 0 -1
BITMAP
0000000000000C00
FFFFFF001FC00FC0
FFFFFF80FFF00FC0
001E00C3F01C0C00
001E00E780060C00
003F006F00030C00
003B007FC00F8C00
003B8078601FCC00
00798070303C6C00
1070C07010783C00
18F070F019F01C00
0FE01FE01BE00C00
038007801F800C00
000000001F000C00
000000003E000C00
0000000078000C00
00000000F0000C00
0000000060000C00
0000000000000C00
0000000000000C00
0000000000000C00
0000000000000C00
0000000000000C00
0000000000000C00
0000000000000C00
0000000000000C00
0000000000000C00
0000000000000C00
0000000000000C00
0000000000000C00
0000000000000C00
0000000000000C00
0000000000000400
ENDCHAR
STARTCHAR C019
ENCODING 19
SWIDTH 1140 0
DWIDTH 57 0
BBX 58 33 0 -1
BITMAP
0000000000000C00
FFFFFF001FC00FC0
FFFFFF80FFF00FC0
001E00C3F01C0C00
001E00E780060C00
003F006F00030C00
003B007FC00F8C00
003B8078601FCC00
00798070303C6C00
1070C07010783C00
18F070F019F01C00
0FE01FE01BE00C00
038007801F800C00
000000001F000C00
000000003E000C00
0000000078000C00
00000000F0000C00
0000000060000C00
000000000F800C00
000000003FE7CC00
0000000078FFEC00
00000000E03C7C00
00000000C0183C00
00000000BC081C00
00000000FE081C00
00000000FE000C00
00000000FE000C00
00000000FE000C00
000000007C000C00
0000000000000C00
0000000000000C00
0000000000000C00
0000000000000400
ENDCHAR
STARTCHAR C020
ENCODING 20
SWIDTH 1020 0
DWIDTH 51 0
BBX 52 32 0 -1
BITMAP
FFFFFFFFFFFFF0
FFFFFFFFFFFFF0
001C0180000000
001E01C0000000
003E00C0000000
003F00E001E000
003B00E001FC00
003B80E001FE00
007980E0019F00
1870C0E0018300
0CF061F8018180
07E03FCC018180
03800F06018080
0000000E018080
0000000E018080
0000001C018180
0000003C018F80
00000078019F00
00000070019F00
000000E0019F00
000001E0018E00
000000F8018000
0000000E018000
00000003818000
00000000C18000
00000000718000
00000000198000
000000000D8000
00000000078000
00000000038000
00000000038000
00000000018000
ENDCHAR
STARTCHAR C021
ENCODING 21
SWIDTH 620 0
DWIDTH 31 0
BBX 32 32 0 -1
BITMAP
FFFFFFFF
FFFFFFFF
001E0030
001E0038
001F0018
003F001C
003B801C
0039801C
0078C01C
3070601C
18F0383C
0FE00FF8
078003F0
00000070
000003F0
00001FF0
00007E30
0001F030
0007C030
001F0030
003C0030
003F8030
0007E030
0000F030
00003C30
00001E30
00000730
000003B0
000001F0
000000F0
00000070
00000070
ENDCHAR
STARTCHAR C022
ENCODING 22
SWIDTH 760 0
DWIDTH 38 0
BBX 39 32 0 -1
BITMAP
FFFFFFFFFE
FFFFFFFFFE
001E003060
001E003860
001F001860
003F001C60
003B801C60
0039801C60
0078C01C60
3070601C60
18F0383C60
0FE00FF860
078003E060
0000006060
0000006060
0000006060
0000006060
000001E060
000007F060
00000FF860
00001FFC60
00001FEE60
00001FE760
00000FC360
00000781E0
00000001E0
00000000E0
00000000E0
0000000060
0000000060
0000000060
0000000060
ENDCHAR
STARTCHAR C023
ENCODING 23
SWIDTH 620 0
DWIDTH 31 0
BBX 32 32 0 -1
BITMAP
FFFFFFFF
FFFFFFFF
001E0030
001E0038
001F0018
003F001C
003B801C
0039801C
0078C01C
3070601C
18F0383C
0FE00FF8
078003F0
00000030
00000030
00000030
00000030
003E0030
00FF9F30
01E3FFB0
0380F1F0
030060F0
02F02070
03F82070
03F80030
03F80030
03F80030
01F00030
00000030
00000030
00000030
00000010
ENDCHAR
STARTCHAR C024
ENCODING 24
SWIDTH 500 0
DWIDTH 25 0
BBX 26 35 0 -4
BITMAP
FFFFFFC0
FFFFFFC0
00C00000
007F0000
01FFC000
03F06000
07F03000
07F01000
07E01800
03C01800
00003800
00003800
00007000
0000F000
0E03E000
07FFC000
01FF0000
00700000
001C0000
00060000
00038000
0000E000
00FC3000
03FF3800
07C1BC00
0F00F700
0E007000
0F003000
0F803000
0F803000
07003000
00003000
00003000
00003000
00003000
ENDCHAR
STARTCHAR C025
ENCODING 25
SWIDTH 740 0
DWIDTH 37 0
BBX 38 31 0 0
BITMAP
FFFFFFFFFC
FFFFFFFFFC
0000060000
0000060000
0000060000
00003E0000
0000FE1E00
0003C63F00
000F063F80
001C063F80
0078063FC0
00E0063FC0
01C0061EC0
07800600C0
0E00060180
0C00070180
0F00078700
03C007FE00
00F0067800
0038060000
000E060000
0007060000
0001860000
0000C60000
0000660000
0018360000
003C1E0000
003C0E0000
00180E0000
0000060000
0000020000
ENDCHAR
STARTCHAR C026
ENCODING 26
SWIDTH 700 0
DWIDTH 35 0
BBX 36 31 0 0
BITMAP
FFFFFFFFF0
FFFFFFFFF0
0000030000
0000030000
0000030000
00001F0000
00007F0000
0001E30000
0007833800
001E03FC00
003803E600
00F0030700
01C0030600
0380030600
0F00030600
0C00030600
0F00030600
03C0030600
00F0030600
0038030600
000E030600
0007030600
0001830600
0000C30600
0000630600
0018330600
003C1B0600
003C0F0600
0018070300
0000070300
0000030000
ENDCHAR
STARTCHAR C027
ENCODING 27
SWIDTH 560 0
DWIDTH 28 0
BBX 29 35 0 -4
BITMAP
FFFFFFF8
FFFFFFF8
00000000
00000000
01F01800
07FC3C00
0F863E00
0E037300
0F817100
0FC1E180
0FC0E180
0FC0C180
0FC00180
07800380
00000380
00000700
00000F00
00001E00
00007C00
0E03F800
07FFE000
03FF0000
00F00000
003C0000
000F0000
00038000
0000E000
00007800
00001C00
00000700
00000380
000000C0
00000060
00000030
00000018
ENDCHAR
STARTCHAR C028
ENCODING 28
SWIDTH 660 0
DWIDTH 33 0
BBX 34 35 0 -4
BITMAP
FFFFFFFFC0
FFFFFFFFC0
0040000000
0060000000
003F800000
01FFE00000
03F0300000
07F0180000
07F008E000
07E00FF000
03C00F9800
00000E1C00
00000C1800
00001C1800
00001C1800
0000381800
0000781800
1001F01800
1C07E01800
0FFFC01800
03FE001800
00E0001800
0070001800
001C001800
000E001800
0003801800
0001C01800
0000601800
0000301800
00001C0C00
00000E0C00
0000030400
0000018000
000000C000
0000006000
ENDCHAR
STARTCHAR C029
ENCODING 29
SWIDTH 700 0
DWIDTH 35 0
BBX 30 31 2 1
BITMAP
001F8100
007FE180
01FFF180
03E07BC0
03801FC0
C7F80F60
67FC0760
67FC0320
63060330
60060030
60060030
600E0030
600E0070
201C0FF0
303C1FE0
30781FE0
10301FE0
18001FF0
08000FB0
0C000018
04000008
0600000C
0300000C
0380001C
01C0001C
00E00038
00780078
003F01F0
001FFFE0
0007FF80
0000FE00
ENDCHAR
STARTCHAR C030
ENCODING 30
SWIDTH 720 0
DWIDTH 36 0
BBX 30 31 3 1
BITMAP
F803C100
FF0FE180
FF9FF380
07FC3BC0
00F81B40
C0F80F60
C3FE0760
C7FF0720
C7FF0230
CFFF8030
CFFF8030
4FDF8030
67070070
60000FF0
20001FE0
30001FE0
30001FE0
18001FF0
18000FB0
0C000018
0C000008
0600000C
0300000C
0380001C
01C0001C
00F00038
007C0078
003F01F0
000FFFE0
0003FF80
0000FE00
ENDCHAR
STARTCHAR C031
ENCODING 31
SWIDTH 640 0
DWIDTH 32 0
BBX 33 31 0 0
BITMAP
FFFFFFFF80
FFFFFFFF80
00C0000000
0040000000
0040000000
03FE000000
07FF83C000
0FE0C7E000
0FE06C3000
0FC0381800
078030F800
000031F800
000031F800
000071F800
000071F800
0000E0F000
0801E00000
0E07C00000
07FF800000
01FE000000
0060000000
0030000000
001C000000
0006000000
0003000000
0001800000
0000E00000
0000300000
0000180000
00000C0000
0000060000
ENDCHAR
STARTCHAR C032
ENCODING 32
SWIDTH 400 0
DWIDTH 20 0
BBX 0 0 0 0
BITMAP
ENDCHAR
STARTCHAR C033
ENCODING 33
SWIDTH 600 0
DWIDTH 30 0
BBX 7 40 19 -6
BITMAP
38
7C
7C
7C
7C
7C
7C
7C
7C
7C
7C
7C
7C
7C
7C
7C
7C
7C
7C
7C
7C
38
38
38
38
38
38
10
00
00
00
00
00
38
7C
FE
FE
FE
7C
38
ENDCHAR
STARTCHAR C034
ENCODING 34
SWIDTH 440 0
DWIDTH 22 0
BBX 17 18 3 23
BITMAP
383C00
7C7E00
FEFF00
FFFF80
FFFF80
7F7F80
3B3D80
030180
070380
060300
0E0700
0E0700
1C0E00
180C00
381C00
703800
E07000
406000
ENDCHAR
STARTCHAR C035
ENCODING 35
SWIDTH 540 0
DWIDTH 27 0
BBX 23 39 2 -8
BITMAP
001860
003860
003060
003060
003060
0030E0
0070C0
0060C0
0060C0
0060C0
0061C0
00E180
00C180
00C180
FFFFFE
FFFFFE
00C300
01C300
018300
018300
018300
FFFFFE
FFFFFE
030600
030600
030600
030E00
030C00
070C00
060C00
060C00
060C00
061C00
0E1800
0C1800
0C1800
0C1800
0C1800
081000
ENDCHAR
STARTCHAR C036
ENCODING 36
SWIDTH 640 0
DWIDTH 32 0
BBX 25 45 4 -4
BITMAP
00060000
00060000
00060000
000E0000
000C0000
000C0000
001C0000
00180000
00180000
00380000
00300000
00300000
00700000
00600000
00600000
00600000
00E00000
00C00000
00C00000
01C00000
01800000
01800000
03800000
0307FF80
0307FF80
07000000
06000000
06000000
0E000000
0C000000
0C000000
1C000000
18000000
18000000
18000000
38000000
30000000
30000000
70000000
60000000
60000000
E0000000
C0000000
C0000000
C0000000
ENDCHAR
STARTCHAR C037
ENCODING 37
SWIDTH 700 0
DWIDTH 35 0
BBX 29 45 3 -4
BITMAP
06000060
19800060
30C000E0
30C003C0
60780DC0
6067F380
C0300300
C0300700
C0300600
C0300E00
C0300C00
C0301C00
C0301800
C0303800
C0303000
60607000
60606000
30C0E000
30C1C000
19818000
06038000
00030000
00070000
00060000
000E0300
000C0CC0
001C1860
00181860
00383030
00303030
00706018
00E06018
00C06018
01C06018
01806018
03806018
03006018
07006018
06006018
0E003030
0C003030
1C001860
18001860
38000CC0
30000300
ENDCHAR
STARTCHAR C038
ENCODING 38
SWIDTH 480 0
DWIDTH 24 0
BBX 22 36 3 -4
BITMAP
3FC000
7FF0FC
FE18FC
FE08C0
FC0CC0
780CC0
000CC0
001CC0
001CC0
8038C0
E0F8C0
3FF0C0
0FC0C0
0700C0
0180C0
00E0C0
0030C0
0018C0
000CC0
0006C0
0003C0
0003C0
001FC0
007EC0
01F0C0
07C0C0
0F00C0
0FC0C0
01E0C0
0078C0
003CC0
000EC0
0007C0
0003C0
0001C0
0000C0
ENDCHAR
STARTCHAR C039
ENCODING 39
SWIDTH 300 0
DWIDTH 15 0
BBX 8 18 4 23
BITMAP
38
7C
FE
FF
FF
7F
3B
03
03
07
06
0E
0C
1C
18
38
70
60
ENDCHAR
STARTCHAR C040
ENCODING 40
SWIDTH 280 0
DWIDTH 14 0
BBX 10 50 3 -10
BITMAP
0040
0080
0180
0300
0300
0600
0600
0C00
0C00
1C00
1800
3800
3800
3000
3000
7000
7000
7000
7000
6000
E000
E000
E000
E000
E000
E000
E000
E000
E000
E000
E000
E000
6000
7000
7000
7000
3000
3000
3800
1800
1800
1C00
0C00
0E00
0600
0200
0300
0100
0080
0040
ENDCHAR
STARTCHAR C041
ENCODING 41
SWIDTH 280 0
DWIDTH 14 0
BBX 10 50 1 -10
BITMAP
8000
4000
6000
3000
3000
1800
1800
0C00
0C00
0E00
0600
0700
0700
0300
0300
0380
0380
0380
0380
0180
01C0
01C0
01C0
01C0
01C0
01C0
01C0
01C0
01C0
01C0
01C0
01C0
0180
0380
0380
0380
0300
0300
0700
0600
0600
0E00
0C00
1C00
1800
1000
3000
2000
4000
8000
ENDCHAR
STARTCHAR C042
ENCODING 42
SWIDTH 480 0
DWIDTH 24 0
BBX 18 25 3 16
BITMAP
00C000
00C000
00C000
00C000
00C000
C0C0C0
E0C1C0
78C780
3CCF00
0EDC00
07F800
03F000
01E000
03F000
07F800
1EDE00
3CCF00
70C380
E0C1C0
C0C0C0
00C000
00C000
00C000
00C000
00C000
ENDCHAR
STARTCHAR C043
ENCODING 43
SWIDTH 680 0
DWIDTH 34 0
BBX 30 32 2 -1
BITMAP
00030000
00030000
00030000
00030000
00030000
00030000
00030000
00030000
00030000
00030000
00030000
00030000
00030000
00030000
00030000
FFFFFFFC
FFFFFFFC
00030000
00030000
00030000
00030000
00030000
00030000
00030000
00030000
00030000
00030000
00030000
00030000
00030000
00030000
00030000
ENDCHAR
STARTCHAR C044
ENCODING 44
SWIDTH 360 0
DWIDTH 18 0
BBX 8 18 7 -11
BITMAP
38
7C
FE
FF
FF
7F
3B
03
03
07
06
0E
0C
1C
18
38
70
60
ENDCHAR
STARTCHAR C045
ENCODING 45
SWIDTH 340 0
DWIDTH 17 0
BBX 15 4 1 12
BITMAP
FFFE
FFFE
FFFE
FFFE
ENDCHAR
STARTCHAR C046
ENCODING 46
SWIDTH 500 0
DWIDTH 25 0
BBX 2 32 19 -1
BITMAP
80
C0
C0
C0
C0
C0
C0
C0
C0
C0
C0
C0
C0
C0
C0
C0
C0
C0
C0
C0
C0
C0
C0
C0
C0
C0
C0
C0
C0
C0
C0
40
ENDCHAR
STARTCHAR C047
ENCODING 47
SWIDTH 300 0
DWIDTH 15 0
BBX 13 39 1 -8
BITMAP
0018
0018
0018
0038
0030
0030
0070
0060
0060
00E0
00C0
00C0
01C0
0180
0180
0180
0380
0300
0300
0700
0600
0600
0E00
0C00
0C00
1C00
1800
1800
1800
3800
3000
3000
7000
6000
6000
E000
C000
C000
C000
ENDCHAR
STARTCHAR C048
ENCODING 48
SWIDTH 540 0
DWIDTH 27 0
BBX 23 23 2 4
BITMAP
00FE00
03FFC0
0FFFE0
1F01F0
3C0038
780018
70000C
E0000C
E00004
C00006
C00006
C00006
C00006
C00006
40000E
60000E
60001C
30003C
380078
1F01F0
0FFFE0
07FF80
00FE00
ENDCHAR
STARTCHAR C049
ENCODING 49
SWIDTH 540 0
DWIDTH 27 0
BBX 20 30 4 1
BITMAP
600000
700000
E00000
E00000
C00000
C00000
600000
780000
3E0000
1F8000
07E000
01F800
007C00
001F00
000780
0003C0
0000C0
000060
000020
000030
000030
000030
000030
01F870
07FCF0
0FFFE0
0FFFC0
0FFF00
0FFC00
07E000
ENDCHAR
STARTCHAR C050
ENCODING 50
SWIDTH 540 0
DWIDTH 27 0
BBX 21 33 4 -2
BITMAP
300000
700000
700000
380000
1E0000
078000
01E000
007800
001E00
000780
0001C0
0000E0
0000E0
0000E0
0000E0
0001C0
800380
F01F00
FFF800
780000
3E0000
0F0000
038000
01E000
007000
003800
000C00
000600
000380
0001C0
000060
000030
000018
ENDCHAR
STARTCHAR C051
ENCODING 51
SWIDTH 540 0
DWIDTH 27 0
BBX 23 23 2 3
BITMAP
800000
800000
800000
C00F80
C01FE0
403FF0
407F78
607F1C
607F0C
203E06
301C06
300002
180002
180002
0C0002
0C0006
060006
07000C
03801C
01E078
00FFF0
007FE0
001F80
ENDCHAR
STARTCHAR C052
ENCODING 52
SWIDTH 540 0
DWIDTH 27 0
BBX 21 32 3 -1
BITMAP
01FE00
07FFC0
1C07E0
3000F0
600070
400038
C00038
C00018
C00018
E00018
E00010
700030
780060
3E01C0
1FCF00
07FC00
01FF00
079FC0
1C03E0
3000F0
600070
400038
C00038
C00018
C00018
E00018
E00010
700030
780060
3F01C0
1FFF00
03FC00
ENDCHAR
STARTCHAR C053
ENCODING 53
SWIDTH 540 0
DWIDTH 27 0
BBX 23 32 2 -1
BITMAP
003800
007800
00F800
01E800
03CC00
078600
0F0300
0E01C0
1C007E
3C001E
38003C
700078
7000F0
6000E0
E001C0
E003C0
C00380
C00300
C00700
C00700
C00600
400600
600600
600600
200600
300600
180200
0C0300
070180
01E080
007FE0
000FE0
ENDCHAR
STARTCHAR C054
ENCODING 54
SWIDTH 540 0
DWIDTH 27 0
BBX 23 27 2 2
BITMAP
018000
01C000
81C000
806000
806000
802000
C02000
C02000
402018
40303C
40307C
6010E4
6013C6
201F86
201F02
300C02
300002
180002
180002
0C0006
0C0006
06000C
07001C
03C0F8
01FFF0
00FFC0
003F00
ENDCHAR
STARTCHAR C055
ENCODING 55
SWIDTH 540 0
DWIDTH 27 0
BBX 20 32 4 -1
BITMAP
03E000
0FF800
1F0C00
3C0600
780200
700300
E00300
E00100
C00180
C00180
C00180
601F80
3FFF80
0FF980
000180
000180
000180
000180
000180
000180
000180
000180
000180
000180
000080
0000C0
0000C0
0000C0
0000C0
000040
000070
000010
ENDCHAR
STARTCHAR C056
ENCODING 56
SWIDTH 540 0
DWIDTH 27 0
BBX 23 29 2 2
BITMAP
C00000
E00000
600000
300000
300000
300000
300000
300000
300000
300000
300002
300006
3FF8FE
3FFFFC
300F80
300180
300180
300180
300180
300300
300300
300600
300600
300C00
301C00
303800
18F000
1FE000
0F8000
ENDCHAR
STARTCHAR C057
ENCODING 57
SWIDTH 540 0
DWIDTH 27 0
BBX 22 32 3 -1
BITMAP
200000
600000
600000
700000
700000
380000
3C0000
1E0000
0F0000
07C000
03F000
00F800
003E00
001F80
0007C0
0001E0
0000F0
000078
000038
00001C
07E01C
1FF80C
307C0C
601E0C
400E0C
F80708
FC0718
FC0310
FC0330
780360
0003C0
000300
ENDCHAR
STARTCHAR C058
ENCODING 58
SWIDTH 400 0
DWIDTH 20 0
BBX 7 24 9 3
BITMAP
38
7C
FE
FE
FE
7C
38
00
00
00
00
00
00
00
00
00
00
38
7C
FE
FE
FE
7C
38
ENDCHAR
STARTCHAR C059
ENCODING 59
SWIDTH 360 0
DWIDTH 18 0
BBX 8 28 7 -11
BITMAP
38
7C
FE
FE
FE
7C
38
00
00
00
38
7C
FE
FF
FF
7F
3B
03
03
07
06
0E
0C
1C
18
38
70
60
ENDCHAR
STARTCHAR C060
ENCODING 60
SWIDTH 740 0
DWIDTH 37 0
BBX 14 32 19 -1
BITMAP
8008
C00C
C00C
C00C
C00C
C00C
C00C
C00C
C00C
C00C
C00C
C00C
C00C
C00C
C00C
C00C
C00C
C00C
C00C
C00C
C00C
C00C
C00C
C00C
C00C
C00C
C00C
C00C
C00C
C00C
C00C
4004
ENDCHAR
STARTCHAR C061
ENCODING 61
SWIDTH 700 0
DWIDTH 35 0
BBX 30 13 3 8
BITMAP
FFFFFFFC
FFFFFFFC
00000000
00000000
00000000
00000000
00000000
00000000
00000000
00000000
00000000
FFFFFFFC
FFFFFFFC
ENDCHAR
STARTCHAR C062
ENCODING 62
SWIDTH 500 0
DWIDTH 25 0
BBX 26 35 0 -4
BITMAP
FFFFFFC0
FFFFFFC0
00C00000
007F0000
01FFC000
03F06000
07F03000
07F01000
07E01800
03C01800
00003800
00003800
00007000
0000F000
0E03E000
07FFC000
01FF0000
00700000
001C0000
00060000
00038000
0000E000
00003000
00007800
0003FC00
001FF700
007E3000
01F03000
01F83000
003E3000
000FB000
0003F000
0000F000
00007000
00003000
ENDCHAR
STARTCHAR C063
ENCODING 63
SWIDTH 800 0
DWIDTH 40 0
BBX 18 37 19 -3
BITMAP
07E000
1FF800
3C0E00
780300
FC0180
FC00C0
FC00C0
FC00C0
FC00C0
7800C0
0001C0
000380
000300
000700
000E00
001C00
003800
007000
006000
00E000
00C000
00C000
00C000
00C000
00C000
00C000
00C000
000000
000000
000000
000000
01E000
03F000
03F000
03F000
03F000
01E000
ENDCHAR
STARTCHAR C064
ENCODING 64
SWIDTH 660 0
DWIDTH 33 0
BBX 34 34 0 -3
BITMAP
FFFFFFFFC0
FFFFFFFFC0
0001800000
0001800000
0001800000
0001C00000
0FE1C00000
1FF9C00000
3FFDC00000
3F1FC00C00
3F07C07E00
3F03C1FE00
1E01C7CC00
0001DF0C00
0001FC0C00
0001F00C00
0001E00C00
0000C01800
0000001800
0000001800
000000F800
000003F800
00000F9800
00003E1800
0000F81800
0000FC1800
00001F1800
0000079800
000001D800
000000F800
0000007800
0000003800
0000001800
0000001800
ENDCHAR
STARTCHAR C065
ENCODING 65
SWIDTH 300 0
DWIDTH 15 0
BBX 16 33 0 -1
BITMAP
0100
C1FF
F1FF
3980
0D80
0780
0780
0380
0180
0180
0180
0180
0180
0180
0180
0180
0180
0180
0180
0180
0180
0180
0180
0180
0180
0180
0180
0180
0180
0180
0180
0180
0080
ENDCHAR
STARTCHAR C066
ENCODING 66
SWIDTH 520 0
DWIDTH 26 0
BBX 21 32 3 -1
BITMAP
01F800
07FC00
0E1E00
1C0E00
3C0600
2E0600
6F0C00
47F800
C3F000
C00000
C00000
C00000
E00000
E00000
700000
780000
3C0000
1F0000
0FC000
03F000
00F800
003E00
001F80
0007C0
0001E0
0000F0
000070
000038
000038
000018
000018
000018
ENDCHAR
STARTCHAR C067
ENCODING 67
SWIDTH 540 0
DWIDTH 27 0
BBX 28 35 0 -4
BITMAP
FFFFFFF0
FFFFFFF0
0C000000
0C000000
0C000000
0E000000
0F000000
0DFFE000
0C7FF800
0C070C00
0C070600
0C0E0200
0C1E0300
0C3C0300
0CF80700
0FF00700
07C00E00
00001E00
00007C00
0001F800
001FE000
0FFF8000
07F80000
003E0000
00078000
0001C000
00006000
00003800
00001C00
00000600
00000300
00000180
000000C0
00000060
00000030
ENDCHAR
STARTCHAR C068
ENCODING 68
SWIDTH 600 0
DWIDTH 30 0
BBX 31 29 0 2
BITMAP
FFFFFFFE
FFFFFFFE
00010000
00010000
30010000
30010000
30010000
10010000
10010000
10010080
100101C0
100103C0
10010F60
18011E60
1801FC30
0801F030
0C00E010
0C000010
06000010
06000010
03000030
03000030
01800060
01C000E0
00E003C0
007C0F80
003FFF00
000FFC00
0003F000
ENDCHAR
STARTCHAR C069
ENCODING 69
SWIDTH 320 0
DWIDTH 16 0
BBX 23 46 -6 -1
BITMAP
800000
800000
800000
C00000
F00000
7FC000
1FFE00
007F80
0003E0
0000F0
000038
000018
000008
000008
03FFFE
03FFFE
000060
0000C0
0000C0
000180
000300
000600
000600
000C00
000C00
000C00
001800
001800
001800
003000
003000
003000
003000
003000
003000
003000
003000
001800
001800
001800
000C00
000C1C
00063E
0003BE
0001FE
00007C
ENDCHAR
STARTCHAR C070
ENCODING 70
SWIDTH 540 0
DWIDTH 27 0
BBX 28 32 0 -1
BITMAP
FFFFFFF0
FFFFFFF0
78000300
0E000300
03800300
01C00300
00700300
00380300
001C0300
001F0300
003F8300
0079C300
00F07300
01E03B00
03C01F00
07800700
0F000300
1F000300
0FC00300
00F00300
003C0300
000E0300
00038300
0001C300
00006300
00003300
00001B00
00000F00
00000F00
00000700
00000700
00000300
ENDCHAR
STARTCHAR C071
ENCODING 71
SWIDTH 560 0
DWIDTH 28 0
BBX 29 32 0 -1
BITMAP
FFFFFFF8
FFFFFFF8
0C000180
1C000180
1C000180
18000180
18000180
18000180
08000180
0C030180
060F8180
03FF0180
00FE0180
003C0180
00780180
00F00180
01E00180
03C00180
07800180
03E00180
00780180
001E0180
00070180
0001C180
0000E180
00003180
00001980
00000D80
00000780
00000380
00000380
00000180
ENDCHAR
STARTCHAR C072
ENCODING 72
SWIDTH 340 0
DWIDTH 17 0
BBX 11 28 3 3
BITMAP
3E00
7F80
E0C0
C040
C060
C060
4060
60E0
3FC0
0F80
0000
0000
0000
0000
0000
0000
0000
1E00
3F80
70C0
E040
C060
C060
C060
40E0
61C0
3F80
0F00
ENDCHAR
STARTCHAR C073
ENCODING 73
SWIDTH 240 0
DWIDTH 12 0
BBX 35 47 -22 -1
BITMAP
07FFC00000
3FFFF00000
7C007C0000
E0001F0000
C000078000
800001C000
800000E000
C000007000
E000003000
7C00001800
3FFF801800
07FFE00800
0000F00C00
0000300C00
0000100400
000010FFE0
000010FFE0
0000000C00
0000000C00
0000000C00
0000000C00
0000000C00
0000000C00
0000000C00
0000000C00
0000000C00
0000000C00
0000000C00
0000000C00
0000000C00
0000000C00
0000000C00
0000000C00
0000000C00
0000000C00
0000000C00
0000000C00
0000000C00
0000000C00
0000000C00
0000000C00
0000000C00
0000000C00
0000000C00
0000000C00
0000000C00
0000000400
ENDCHAR
STARTCHAR C074
ENCODING 74
SWIDTH 680 0
DWIDTH 34 0
BBX 35 33 0 -1
BITMAP
0000000600
FFFFFC07E0
FFFFFC07E0
00000C0600
00000C0600
00001C0600
00007C0600
0001EC0600
00078C0600
000E0C0600
00180C0600
00700C0600
00E00C0600
01800C0600
03000C0600
06000C0600
0E000C0600
07000C0600
01C00C0600
00F00E0600
00380F0600
000C0D8600
00060CC600
00030C6600
00018C3600
0000CC1E00
00006C0E00
00006C0E00
00003C0600
00001C0000
00001C0000
00000C0000
0000040000
ENDCHAR
STARTCHAR C075
ENCODING 75
SWIDTH 620 0
DWIDTH 31 0
BBX 30 33 2 -1
BITMAP
00000080
000E00FC
001F00FC
007F80C0
78F9C0C0
FDE0E0C0
FFC060C0
FF8030C0
FF0030C0
FE0070C0
780070C0
0000E0C0
0001E0C0
0007C0C0
003F80C0
01FE00C0
07F800C0
07E000C0
03F800C0
007E00C0
001F80C0
0007C0C0
0001E0C0
000070C0
000038C0
00001CC0
00000CC0
000006C0
000003C0
000003C0
000001C0
000000C0
000000C0
ENDCHAR
STARTCHAR C076
ENCODING 76
SWIDTH 740 0
DWIDTH 37 0
BBX 38 32 0 -1
BITMAP
FFFFFFFFFC
FFFFFFFFFC
040000C000
060000C000
060000C000
020000C000
0FE000C000
1FFA00FF00
3F8FFFFF80
3F87FFC180
3F8300C1C0
1F0100C180
0E0180C180
000180C180
000180C180
000180C180
000180C180
001F80C180
003F00C180
003FE0C180
003F78C180
003F1CC180
003F06C180
001E03C180
000001C180
000001C180
000000C180
000000C1C0
000000C0C0
000000C000
000000C000
0000004000
ENDCHAR
STARTCHAR C077
ENCODING 77
SWIDTH 400 0
DWIDTH 20 0
BBX 13 31 5 0
BITMAP
3C00
7F00
E180
C080
C0C0
C0C0
40C0
61C0
3F80
0F00
0000
0000
0000
8000
C000
E000
7000
3800
3C00
1E00
0F00
0780
0380
01C0
00E0
0060
0030
0030
0018
0008
0008
ENDCHAR
STARTCHAR C078
ENCODING 78
SWIDTH 520 0
DWIDTH 26 0
BBX 25 33 2 -1
BITMAP
00001000
01E01F80
07F81F80
1F0E1800
3C031800
78019800
7000D800
F0007800
E0003800
E0001800
E0001800
63C01800
77E01800
37E01800
1FE01800
0FC01800
00001800
00001800
00001800
00001800
00001800
00001800
00001800
00001800
00001800
00001800
00001800
00001800
00001800
00001800
00001800
00001800
00000800
ENDCHAR
STARTCHAR C079
ENCODING 79
SWIDTH 240 0
DWIDTH 12 0
BBX 35 46 -22 -1
BITMAP
8000000000
8000000000
8000000000
8000000000
E000000000
7FFF800000
1FFFFE0000
00007FC000
000001F000
0000003800
0000000800
0000000400
0000000400
0000000400
000000FFE0
000000FFE0
0000000C00
0000000C00
0000000C00
0000000C00
0000000C00
0000000C00
0000000C00
0000000C00
0000000C00
0000000C00
0000000C00
0000000C00
0000000C00
0000000C00
0000000C00
0000000C00
0000000C00
0000000C00
0000000C00
0000000C00
0000000C00
0000000C00
0000000C00
0000000C00
0000000C00
0000000C00
0000000C00
0000000C00
0000000C00
0000000400
ENDCHAR
STARTCHAR C080
ENCODING 80
SWIDTH 800 0
DWIDTH 40 0
BBX 34 33 3 -1
BITMAP
0000200000
0F80300000
3FE0303E00
783030FF00
E01831C180
F0083300C0
F80C360040
F80C3C0040
700C380040
001C380040
00183000C0
0038300F80
0070301F00
01E0301F00
07C0300F80
1F003000C0
7C00380040
3E00380040
07803C0040
01E0360040
00703300C0
001831C180
000C30FF00
0006303E00
0003300000
0001B00000
0001B00000
0000F00000
0000F00000
0000700000
0000700000
0000300000
0000100000
ENDCHAR
STARTCHAR C081
ENCODING 81
SWIDTH 900 0
DWIDTH 45 0
BBX 39 32 3 -1
BITMAP
00007E0000
0001FF0000
0007E10000
000F818000
001E0181F0
001C0187F8
0038018FFC
0038019C1C
007001B00E
007001A006
606E01E006
607F01C006
C07F81C006
C03F8180F4
803F8181FC
801F0181F8
800E0181FC
80000180FC
800001C006
C00001C006
C00001E006
600001B006
780001B80E
3FFFC19E1E
1FFFFD8FFC
07FFFF87F8
00003F81E0
0000038000
0000018000
0000018000
0000018000
0000008000
ENDCHAR
STARTCHAR C082
ENCODING 82
SWIDTH 600 0
DWIDTH 30 0
BBX 31 38 0 -7
BITMAP
FFFFFFFE
FFFFFFFE
00010000
00010000
30010000
30010000
30010000
10010000
10010000
10010080
100101C0
100103C0
10010F60
18011E60
1801FC30
0801F030
0C00E010
0C000010
06000010
06000010
03000030
03000030
01800060
01C000E0
00E003C0
007C0F80
003FFF00
000FFC00
0003F000
00000000
00000000
00000000
0001E000
0003F000
0003F000
0003F000
0003F000
0001E000
ENDCHAR
STARTCHAR C083
ENCODING 83
SWIDTH 580 0
DWIDTH 29 0
BBX 31 33 -1 -1
BITMAP
F0000040
FC01F07E
7E07F87E
0F0FFC60
039E0E60
01BC0660
00F80360
01FC01E0
03FE01E0
07FF00E0
0FFF8060
0FFF8060
1FFFC060
1FDFC060
1F8FC060
0E038060
00000060
00000060
00000060
00000060
00000060
00000060
00000060
00000060
00000060
00000060
00000060
00000060
00000060
00000060
00000060
00000060
00000020
ENDCHAR
STARTCHAR C084
ENCODING 84
SWIDTH 480 0
DWIDTH 24 0
BBX 29 43 -4 1
BITMAP
80000000
80000000
40000000
70000000
3FFFC000
0FFFF800
00003E00
00000700
00000180
00000080
00000040
00000040
00000040
0FFFFFF8
0FFFFFF8
00C00000
00C00000
00C00000
00C00000
00C00000
00C00000
00C00000
00C00000
00C00000
00C00F00
00C01F80
00C01F80
00C01F80
00C01F80
00C00F80
00C00380
00C00300
00C00700
00C00700
00C00E00
00C01E00
00C03C00
00C07800
0040F000
0063E000
003FC000
003F0000
001C0000
ENDCHAR
STARTCHAR C085
ENCODING 85
SWIDTH 0 0
DWIDTH 0 0
BBX 22 16 -14 -15
BITMAP
0FC000
3FE000
780000
E00000
C00000
C00000
C00000
C0F000
7FF800
3F8E00
000700
0001C0
0000E0
000038
00001C
000004
ENDCHAR
STARTCHAR C086
ENCODING 86
SWIDTH 480 0
DWIDTH 24 0
BBX 25 38 0 -7
BITMAP
FFFFFF80
FFFFFF80
0C000000
0C000000
0C000000
0C000000
0C000000
0C000000
0C000000
0C000000
0C000000
0C00F000
0C01F800
0C01F800
0C01F800
0C01F800
0C00F800
0C003800
0C003000
0C007000
0C007000
0C00E000
0C01E000
0C03C000
0C078000
040F0000
063E0000
03FC0000
03F00000
01C00000
00000000
00000000
01E00000
03F00000
03F00000
03F00000
03F00000
01E00000
ENDCHAR
STARTCHAR C087
ENCODING 87
SWIDTH 0 0
DWIDTH 0 0
BBX 12 12 -11 -11
BITMAP
0600
1F00
3E00
7800
F000
E000
F800
3E00
1F80
07E0
01F0
0070
ENDCHAR
STARTCHAR C088
ENCODING 88
SWIDTH 480 0
DWIDTH 24 0
BBX 25 30 0 1
BITMAP
FFFFFF80
FFFFFF80
0C000000
0C000000
0C000000
0C000000
0C000000
0C000000
0C000000
0C000000
0C000000
0C00F000
0C01F800
0C01F800
0C01F800
0C01F800
0C00F800
0C003800
0C003000
0C007000
0C007000
0C00E000
0C01E000
0C03C000
0C078000
040F0000
063E0000
03FC0000
03F00000
01C00000
ENDCHAR
STARTCHAR C089
ENCODING 89
SWIDTH 540 0
DWIDTH 27 0
BBX 28 32 0 -1
BITMAP
FFFFFFF0
FFFFFFF0
78000300
0E000300
03800300
01C00300
00700300
00380300
001C0300
001E0300
003C0300
00780300
00F00300
01E00300
03C00300
07800300
0F000300
1F000300
0FC00300
00F00300
003C0300
000E0300
00038300
0001C300
00006300
00003300
00001B00
00000F00
00000F00
00000700
00000700
00000300
ENDCHAR
STARTCHAR C090
ENCODING 90
SWIDTH 500 0
DWIDTH 25 0
BBX 26 47 0 2
BITMAP
00400000
00E00000
01E00000
01C00000
01800000
01800000
01800000
00800000
00C00000
00C00000
00400000
00600000
00200000
00300000
00100000
00180000
000C0000
00040000
FFFFFFC0
FFFFFFC0
00030000
00038000
00038000
0003C000
00036000
00032000
00073000
00071000
000E1800
000E1800
001C0800
001C0C00
00380C00
00780C00
00F00C00
01E00C00
03C01C00
07801C00
1F001800
1E003800
18003800
18007000
0800F000
0C01E000
0607C000
03FF8000
00FE0000
ENDCHAR
STARTCHAR C091
ENCODING 91
SWIDTH 200 0
DWIDTH 10 0
BBX 8 51 3 -10
BITMAP
FF
FF
FF
FF
E0
E0
E0
E0
E0
E0
E0
E0
E0
E0
E0
E0
E0
E0
E0
E0
E0
E0
E0
E0
E0
E0
E0
E0
E0
E0
E0
E0
E0
E0
E0
E0
E0
E0
E0
E0
E0
E0
E0
E0
E0
E0
E0
E0
FF
FF
FF
ENDCHAR
STARTCHAR C092
ENCODING 92
SWIDTH 440 0
DWIDTH 22 0
BBX 17 18 2 23
BITMAP
030180
070380
0E0700
1C0E00
181C00
381800
703800
603000
E07000
C06000
C06000
DE6E00
FF7F00
FFFF80
FFFF80
7FBF80
3F1F00
1E0E00
ENDCHAR
STARTCHAR C093
ENCODING 93
SWIDTH 200 0
DWIDTH 10 0
BBX 7 51 0 -10
BITMAP
FE
FE
FE
FE
0E
0E
0E
0E
0E
0E
0E
0E
0E
0E
0E
0E
0E
0E
0E
0E
0E
0E
0E
0E
0E
0E
0E
0E
0E
0E
0E
0E
0E
0E
0E
0E
0E
0E
0E
0E
0E
0E
0E
0E
0E
0E
0E
0E
FE
FE
FE
ENDCHAR
STARTCHAR C094
ENCODING 94
SWIDTH 0 0
DWIDTH 0 0
BBX 22 12 -9 33
BITMAP
00001C
000078
0000E0
0003C0
000F00
001E00
007800
01E000
07C000
0F0000
3E0000
F80000
ENDCHAR
STARTCHAR C095
ENCODING 95
SWIDTH 0 0
DWIDTH 0 0
BBX 11 9 -5 -13
BITMAP
8000
C000
7000
3800
0C00
0600
0380
01C0
0060
ENDCHAR
STARTCHAR C096
ENCODING 96
SWIDTH 300 0
DWIDTH 15 0
BBX 8 18 3 23
BITMAP
06
0E
1C
18
38
30
70
60
E0
C0
C0
DC
FE
FF
FF
7F
3E
1C
ENDCHAR
STARTCHAR C097
ENCODING 97
SWIDTH 800 0
DWIDTH 40 0
BBX 41 32 0 -1
BITMAP
FFFFFFFFFF80
FFFFFFFFFF80
001800001800
000C00001800
1006FC001800
1003FF001800
1007FFC01800
180FC3E01800
181FE0701800
0C1FE0301800
0C1FE0181800
060FC0181800
060780081800
030000081800
030000081800
018000081800
01C000081800
00C000081800
006000181800
007000181800
0038001C1800
001C003E1800
000F00771800
0007C1E31800
0003FFC19800
0000FF81D800
00003E00D800
000000007800
000000007800
000000003800
000000001800
000000001800
ENDCHAR
STARTCHAR C098
ENCODING 98
SWIDTH 500 0
DWIDTH 25 0
BBX 26 31 0 0
BITMAP
FFFFFFC0
FFFFFFC0
00000C00
00000C00
00000C00
00007C00
0001FC00
00078C00
001E0C00
00380C00
00F00C00
01C00C00
07800C00
0E000C00
1C000C00
38000C00
1E000C00
07800C00
01C00C00
00700C00
00380C00
000C0C00
00060C00
00030C00
00018C00
0000CC00
00006C00
00003C00
00003C00
00001C00
00000C00
ENDCHAR
STARTCHAR C099
ENCODING 99
SWIDTH 480 0
DWIDTH 24 0
BBX 25 30 0 1
BITMAP
FFFFFF80
FFFFFF80
0C000000
0C000000
0E000000
0F000000
0F800000
0DC00000
0CF00000
0C7C0000
0C3F8000
0C0FF000
0C03F000
0C007800
0C001800
0C001800
0C003800
0C003800
0C003000
0C007000
0C00F000
0C00E000
0C01C000
0C03C000
0C078000
040F0000
063E0000
03FC0000
03F00000
01C00000
ENDCHAR
STARTCHAR C100
ENCODING 100
SWIDTH 460 0
DWIDTH 23 0
BBX 24 32 0 -1
BITMAP
FFFFFF
FFFFFF
180000
180000
180000
180000
180000
180010
1800F8
1803F0
1807F0
181E60
183CE0
18F0C0
19E0C0
1B80C0
1F01C0
1E0180
1C0180
180180
000180
000180
000180
000180
000180
000180
000180
000080
0000C0
0000C0
0000C0
000040
ENDCHAR
STARTCHAR C101
ENCODING 101
SWIDTH 320 0
DWIDTH 16 0
BBX 17 32 0 -1
BITMAP
FFFF80
FFFF80
001800
003000
003000
006000
00C000
018000
018000
030000
030000
030000
060000
060000
060000
0C0000
0C0000
0C0000
0C0000
0C0000
0C0000
0C0000
0C0000
060000
060000
060000
030000
030700
018F80
00EF80
007F80
001F00
ENDCHAR
STARTCHAR C102
ENCODING 102
SWIDTH 660 0
DWIDTH 33 0
BBX 34 32 0 -1
BITMAP
FFFFFFFFC0
FFFFFFFFC0
3C00000000
0700000000
0380000000
00E0078000
007007E000
00380FF000
001C0C7800
001E0C1800
003C0C0C00
00780C0C00
00F00C0400
01E00C7C00
01C00CFC00
03800CFC00
07800CFC00
0F000CFC00
07C00C7800
00F00C0000
00380C0000
000E0C0000
00070C0000
00018C0000
0000CC0000
00006C0000
00003C0000
00001C0000
00001C0000
00000C0000
00000C0000
0000040000
ENDCHAR
STARTCHAR C103
ENCODING 103
SWIDTH 560 0
DWIDTH 28 0
BBX 27 33 2 -1
BITMAP
00000400
000007E0
01F807E0
07FE0600
1F838600
3E00C600
78006600
70003600
FF801E00
FFE00E00
F8300600
E0100600
00180600
00180600
00380600
00380600
00700600
00700600
00E00600
01E00600
01C00600
01800600
00000600
00000600
00000600
00000600
00000600
00000600
00000600
00000600
00000600
00000600
00000200
ENDCHAR
STARTCHAR C104
ENCODING 104
SWIDTH 500 0
DWIDTH 25 0
BBX 26 35 0 -4
BITMAP
FFFFFFC0
FFFFFFC0
00C00000
00400000
007F8000
01FFE000
03F03000
07F01800
07F00800
07E00C00
03C00C00
00000C00
00000C00
00001C00
00001C00
00003800
00007800
1001F000
1C07E000
0FFFC000
03FE0000
01E00000
00700000
00180000
000E0000
00070000
00018000
0000E000
00007000
00001800
00000C00
00000600
00000300
00000180
000000C0
ENDCHAR
STARTCHAR C105
ENCODING 105
SWIDTH 260 0
DWIDTH 13 0
BBX 31 47 0 -1
BITMAP
007F8000
01FFE000
07E03800
0F800E00
1E000380
1C0000C0
38000060
38000030
30000018
3000000C
30000004
30000006
10000000
18000000
0C000000
FFFC0000
FFFC0000
03000000
03000000
03000000
03000000
03000000
03000000
03000000
03000000
03000000
03000000
03000000
03000000
03000000
03000000
03000000
03000000
03000000
03000000
03000000
03000000
03000000
03000000
03000000
03000000
03000000
03000000
03000000
03000000
03000000
01000000
ENDCHAR
STARTCHAR C106
ENCODING 106
SWIDTH 700 0
DWIDTH 35 0
BBX 36 32 0 -1
BITMAP
FFFFFFFFF0
FFFFFFFFF0
000E000000
001E000000
0039000000
2071800000
2060F00700
20C07FFF00
20C00FFB00
2080000600
3080000600
3080080600
10C03C0600
18F07E0C00
187FF70C00
0C3FC30C00
0C0F818C00
0600018C00
0600008C00
0300008C00
0380018C00
01C0018C00
00F0030C00
007C0F0C00
003FFE0600
000FFC0600
0003F00600
0000000600
0000000600
0000000300
0000000300
0000000100
ENDCHAR
STARTCHAR C107
ENCODING 107
SWIDTH 700 0
DWIDTH 35 0
BBX 36 31 0 0
BITMAP
FFFFFFFFF0
FFFFFFFFF0
0000060000
0000060000
0000078000
00003FE000
0000FE7000
0003C61800
000F060C00
001C060400
0078060200
00E0060200
01C0060100
0700060100
0E00060100
0C00060100
0F00061D00
03C0063F00
00F0063E00
0038063E00
000E061C00
0007060000
0001860000
0000C60000
0000660000
0000360000
00001E0000
00001E0000
00000E0000
0000060000
0000060000
ENDCHAR
STARTCHAR C108
ENCODING 108
SWIDTH 620 0
DWIDTH 31 0
BBX 32 32 0 -1
BITMAP
FFFFFFFF
FFFFFFFF
00000030
00000030
00000030
00000030
00000030
00000030
01F83E30
07FE7F30
0F0F63B0
1C03C1F0
1801C0F0
1000C070
1000C030
10004030
10780030
18FC0030
1CFC0030
0FFC0030
07FC0030
00F80030
00000030
00000030
00000030
00000030
00000030
00000030
00000030
00000030
00000030
00000010
ENDCHAR
STARTCHAR C109
ENCODING 109
SWIDTH 540 0
DWIDTH 27 0
BBX 28 32 0 -1
BITMAP
FFFFFFF0
FFFFFFF0
38000300
30000300
30000300
10000300
18000300
0C000300
06000300
03000300
01800300
00C00300
00600300
00300300
00180300
00080300
000C0300
00FC0300
01FC0300
03FC0300
03FF0300
03FFC300
03FCE300
01F83300
00F01B00
00000B00
00000700
00000700
00000300
00000300
00000300
00000100
ENDCHAR
STARTCHAR C110
ENCODING 110
SWIDTH 520 0
DWIDTH 26 0
BBX 27 32 0 -1
BITMAP
FFFFFFE0
FFFFFFE0
00000600
00000600
00000600
00000600
00000600
00000600
00000600
00000600
00000600
00000600
01F80600
07FE0600
0FFF0600
1FE78600
1FE1C600
1FE0E600
0FC06600
07803600
00003600
00001E00
00001E00
00000E00
00000E00
00000E00
00000600
00000600
00000600
00000600
00000600
00000200
ENDCHAR
STARTCHAR C111
ENCODING 111
SWIDTH 660 0
DWIDTH 33 0
BBX 29 44 2 2
BITMAP
00100000
00300000
00600000
00600000
00600000
00600000
00700000
003C0000
003F8000
001FFE00
0007FFC0
0000FFE0
000003F0
00000070
0007F038
001FFC18
007FFE18
00F80E18
01E00318
C3E00318
C3F00310
C3F00330
C3F00720
C3F00F60
C1E00EC0
C001FD80
4003FF00
6003FE00
6003FC00
6003FC00
2001FC00
30000600
30000200
10000300
18000300
08000300
0C000700
06000700
07000E00
03801E00
01E07C00
00FFF800
007FE000
001F8000
ENDCHAR
STARTCHAR C112
ENCODING 112
SWIDTH 600 0
DWIDTH 30 0
BBX 29 33 2 -1
BITMAP
00000100
000001F8
01F801F8
07FE0180
1F038180
3C00E180
78003180
FE00F980
4301FD80
0183C780
00878380
00DF0180
00FE0180
00F80180
01F00180
03E00180
03800180
03000180
00000180
00000180
00000180
00000180
00000180
00000180
00000180
00000180
00000180
00000180
00000180
00000180
00000180
00000180
00000080
ENDCHAR
STARTCHAR C113
ENCODING 113
SWIDTH 620 0
DWIDTH 31 0
BBX 26 32 2 2
BITMAP
0000FC00
0003FE00
0007FE00
180F0300
0C0E0300
0E1C0700
079C0F00
C3F87E00
C1FFFC00
C07FF000
C03F8000
C0300000
C0300000
40300600
60300700
60300F00
60301F80
2030FD80
301FF880
301FE0C0
100F00C0
180000C0
0C0000C0
0C0000C0
060001C0
030001C0
03800380
01E00780
00F81F00
007FFE00
001FF800
0007E000
ENDCHAR
STARTCHAR C114
ENCODING 114
SWIDTH 500 0
DWIDTH 25 0
BBX 26 32 0 -1
BITMAP
FFFFFFC0
FFFFFFC0
00000C00
00000C00
00000C00
00007C00
0001FC00
00078C00
001E0C00
00380C00
00F00C00
01C00C00
07800C00
0E000C00
1C000C00
38000C00
1E000C00
07800C00
01C00C00
00700C00
00380C00
000C0C00
00060C00
00030C00
00018C00
0000CC00
00F06C00
01F83C00
01F83C00
01F81C00
01F80C00
00F00000
ENDCHAR
STARTCHAR C115
ENCODING 115
SWIDTH 600 0
DWIDTH 30 0
BBX 31 32 0 -1
BITMAP
FFFFFFFE
FFFFFFFE
1FC00060
03E00060
00700060
00380060
00180060
000C0060
000C0060
00040060
00060060
0006F860
0003FC60
0003C660
00078360
000701E0
000E0060
0C1E0060
0C3C0060
07F80060
01F00060
00000060
00000060
00000060
00000060
00000060
00000060
00000060
00000060
00000060
00000060
00000020
ENDCHAR
STARTCHAR C116
ENCODING 116
SWIDTH 600 0
DWIDTH 30 0
BBX 31 29 0 2
BITMAP
FFFFFFFE
FFFFFFFE
00000000
00000000
20000000
20000000
2000F800
2003FE00
2007FF00
300FF780
300FF1C0
100FF0C0
180FF060
1807E060
0803C020
0C000020
0C000020
06000020
06000020
03000060
03800060
018000C0
00C000C0
00E00180
00780380
003E0F00
001FFE00
0007FC00
0001F000
ENDCHAR
STARTCHAR C117
ENCODING 117
SWIDTH 0 0
DWIDTH 0 0
BBX 22 16 -15 -15
BITMAP
003000
003000
3E3000
7FB000
E1F000
C07000
C07800
70EC00
3FC600
0F8300
000180
0000C0
000060
000030
000018
00000C
ENDCHAR
STARTCHAR C118
ENCODING 118
SWIDTH 620 0
DWIDTH 31 0
BBX 32 29 0 2
BITMAP
FFFFFFFF
FFFFFFFF
00000000
00000000
60000000
60000000
60000000
200F0000
301F8000
303FC000
303FC080
103FC1C0
183FC3E0
183FCF60
081FFE30
0C0FFC10
0C01F018
06000018
06000018
03000018
03000018
01800038
00C00030
00E00070
007801E0
003E07C0
001FFF80
0007FE00
0001F800
ENDCHAR
STARTCHAR C119
ENCODING 119
SWIDTH 0 0
DWIDTH 0 0
BBX 16 13 -13 34
BITMAP
03C0
07E0
87E1
87E1
87E1
C3C3
C003
6006
700E
3C3C
1FF8
0FF0
03C0
ENDCHAR
STARTCHAR C120
ENCODING 120
SWIDTH 520 0
DWIDTH 26 0
BBX 23 32 4 0
BITMAP
1F0000
3F807E
2F807E
2F8060
270060
200060
3003E0
180FE0
0E3C60
03F060
01C060
078060
0E0060
1C0060
700060
E00060
C00060
F00060
3C0060
0E0060
038060
01C060
006060
003060
001860
000C60
000660
000360
0001E0
0001E0
0000E0
000060
ENDCHAR
STARTCHAR C121
ENCODING 121
SWIDTH 540 0
DWIDTH 27 0
BBX 28 32 0 -1
BITMAP
FFFFFFF0
FFFFFFF0
78000300
0E000300
03800300
01C00300
00700300
00380300
001C0300
001E0300
003C0300
00780300
00F00300
01E00300
03C00300
07800300
0F000300
1F000300
0FC00300
00F00300
003C0300
000E0300
00038300
0001C300
00006300
00003300
003C1B00
007E0F00
007E0F00
007E0700
007E0700
003C0300
ENDCHAR
STARTCHAR C122
ENCODING 122
SWIDTH 580 0
DWIDTH 29 0
BBX 27 33 3 -1
BITMAP
00000400
0FC007E0
3FF007E0
78180600
E00C0600
F0040600
F8060600
F8060600
70060600
000E0600
000C0600
001C0600
00380600
00F00600
03E00600
0F800600
3E000600
3F800600
07E00600
00F80600
001C0600
00070600
00018600
0000C600
00006600
00003600
00001600
00000E00
00000E00
00000600
00000600
00000600
00000200
ENDCHAR
STARTCHAR C123
ENCODING 123
SWIDTH 600 0
DWIDTH 30 0
BBX 31 1 0 15
BITMAP
FFFFFFFE
ENDCHAR
STARTCHAR C124
ENCODING 124
SWIDTH 1100 0
DWIDTH 55 0
BBX 56 1 0 15
BITMAP
FFFFFFFFFFFFFF
ENDCHAR
STARTCHAR C125
ENCODING 125
SWIDTH 500 0
DWIDTH 25 0
BBX 26 35 0 -4
BITMAP
FFFFFFC0
FFFFFFC0
00C00000
007F0000
01FFC000
03F06000
07F03000
07F01000
07E01800
03C01800
00003800
00003800
00007000
0000F000
0E03E000
07FFC000
01FF0000
00700000
001C0000
00060000
00038000
0000E000
00003000
03F01800
07FBCC00
0E1FEF00
0C0E7C00
0F863C00
0FC61C00
0FC00C00
0FC00C00
0FC00C00
07800C00
00000C00
00000C00
ENDCHAR
STARTCHAR C126
ENCODING 126
SWIDTH 640 0
DWIDTH 32 0
BBX 28 10 2 10
BITMAP
03C00000
0FF00000
1FF80000
383C0010
700E0020
400700E0
8003C1C0
0001FF80
0000FF00
00003C00
ENDCHAR
STARTCHAR C127
ENCODING 127
SWIDTH 980 0
DWIDTH 49 0
BBX 50 38 0 -6
BITMAP
00000000000C00
FFFFFFE3F80FC0
FFFFFFFFFE0FC0
0001003F030C00
0001007C018C00
0001007000CC00
000100E0004C00
000100E0006C00
000100FC003C00
000100FF001C00
000101E1800C00
00010180C00C00
000103C0400C00
00010FE0600C00
00011E60600C00
0801FC30600C00
0801F030E00C00
0800E011E00C00
0C000011C00C00
0C000011800C00
06000010000C00
06000030000C00
03000030000C00
03800060000C00
01C000E0000C00
00F003C0000C00
007C0F80000C00
003FFF00000C00
000FFC00000C00
0003F000000C00
00000000000C00
00000000000C00
0000F000000000
0001F800000000
0001F800000000
0001F800000000
0001F800000000
0000F000000000
ENDCHAR
STARTCHAR C128
ENCODING 128
SWIDTH 700 0
DWIDTH 35 0
BBX 36 32 0 -1
BITMAP
FFFFFFFFF0
FFFFFFFFF0
0000060000
00000FC000
00007FF000
0003FE7C00
000FC60E00
003E060700
0078060300
01E0060F00
07C0061F00
0F00061F00
0E001F9F00
07007FFF00
0381F6FE00
01C7C63800
00FF061C00
007C060C00
00F0060E00
01E0060600
01F8060600
003E063E00
000F867E00
0003C67E00
0000E67C00
0000763800
00003E0000
00001E0000
00001E0000
00000E0000
00000E0000
0000060000
ENDCHAR
STARTCHAR C129
ENCODING 129
SWIDTH 540 0
DWIDTH 27 0
BBX 28 47 0 -2
BITMAP
80000000
C0000000
60000000
38000000
1F000000
07FF8000
00FFF000
00007C00
00000E00
00000300
00000100
00000080
00000080
00000080
FFFFFFF0
FFFFFFF0
00018000
00038000
000FC000
003FF000
00F9F800
03E19C00
07818E00
1E01BE00
1F01FE00
07C1FE00
01E1FE00
0071FE00
0039BC00
001D8000
000F8000
00078000
00078000
001F8000
003FBC00
00787E00
00F07F00
00E07F00
00C07F00
00C03F00
00C00E00
00400E00
00601E00
00383C00
003FF800
001FF000
0007C000
ENDCHAR
STARTCHAR C130
ENCODING 130
SWIDTH 740 0
DWIDTH 37 0
BBX 38 30 0 1
BITMAP
FFFFFFFFFC
FFFFFFFFFC
0000000000
0001F80000
000FFE0000
003FFF0000
007E070000
30F0018000
31E001BF00
31E001FF80
13F003C0C0
19F00787E0
19F0FF0FE0
18E1FE1FE0
0801FC1FE0
0801FC1FE0
0C01FE1FE0
0C01FE0FC0
0400F30780
0600010000
0600018000
0300018000
0300018000
0180038000
00C0038000
00E0070000
00781F0000
003FFE0000
001FF80000
0007E00000
ENDCHAR
STARTCHAR C131
ENCODING 131
SWIDTH 700 0
DWIDTH 35 0
BBX 36 32 0 -1
BITMAP
FFFFFFFFF0
FFFFFFFFF0
0000060000
00000FC000
00007FF000
0003FE7800
000FC61C00
003E060E00
0078060600
01E0060700
07C0060300
0F00060300
0E001E0F00
07007E1F00
0381F61F00
01C7C61F00
00FF061F00
007C060E00
00F0060000
01E0060000
01F8060000
003E060000
000F860000
0003C60000
0000E60000
0000760000
00003E0000
00001E0000
00000E0000
00000E0000
0000060000
0000060000
ENDCHAR
STARTCHAR C132
ENCODING 132
SWIDTH 680 0
DWIDTH 34 0
BBX 35 32 0 -1
BITMAP
FFFFFFFFE0
FFFFFFFFE0
0001800600
0003800600
000FF00600
007FFC0600
01F99E0600
07C1870600
0F01838600
3C01818600
3F018F8600
07C19F8600
01F19F8600
00799F8600
001D9F8600
000F8F0600
0007800600
0003800600
0001800600
0001F80600
0003FE0600
0007FF8600
0007FFC600
0007F9E600
0003F07600
0001E03E00
0000001E00
0000000E00
0000000E00
0000000600
0000000600
0000000600
ENDCHAR
STARTCHAR C133
ENCODING 133
SWIDTH 840 0
DWIDTH 42 0
BBX 43 32 0 -1
BITMAP
FFFFFFFFFFE0
FFFFFFFFFFE0
000000000000
00003F000000
0000FFC00000
0001F0600000
0003C0300000
000780300000
00070033F000
00070037F800
000E003C0C00
0C0FC0383E00
0C0FE0307E00
180FF030FF00
180FF030FF00
1007F030FF00
1007E030FF00
1003C0307E00
100000303C00
100000300000
180000300000
180000300000
080000300000
0C0000300000
0E0000300000
07C000300000
03FFFF300000
01FFFFF00000
003FFFF00000
000000F00000
000000300000
000000300000
ENDCHAR
STARTCHAR C134
ENCODING 134
SWIDTH 640 0
DWIDTH 32 0
BBX 33 32 0 -1
BITMAP
FFFFFFFF80
FFFFFFFF80
00000C0000
00001C0000
0000FF0000
0003FFC000
000F8DE000
003E0C7000
00F80C3000
01E00C3800
01F80C7800
003E0CF800
000F8CF800
0003CCF800
0000ECF800
00007C7000
00003C0000
00001C0000
00001C0000
00000C0000
03E1EC0000
0FFBFC0000
1E3F3C0000
1F0E1C0000
1F840C0000
1F800C0000
1F800C0000
1F800C0000
0F000C0000
00000C0000
00000C0000
0000040000
ENDCHAR
STARTCHAR C135
ENCODING 135
SWIDTH 820 0
DWIDTH 41 0
BBX 42 32 0 -1
BITMAP
FFFFFFFFFFC0
FFFFFFFFFFC0
060040600000
020040600000
030040600000
030040600000
0FF060600000
1FFC787F8000
1F863FFFE000
1F831FFFF000
1F8187E07800
1F8080601800
0F00C0600C00
0000C0600C00
0000C060E400
0000C061F400
0001C063FC00
000F8063FC00
001F8063F800
003FF061F000
003FBC60E000
003F86600000
001F03600000
000E01E00000
000000E00000
000000E00000
000000600000
000000600000
000000600000
000000600000
000000600000
000000200000
ENDCHAR
STARTCHAR C136
ENCODING 136
SWIDTH 740 0
DWIDTH 37 0
BBX 38 36 0 -5
BITMAP
FFFFFFFFFC
FFFFFFFFFC
0401830000
0601030000
0201030000
0FE1830000
1FF9E30000
3F8CFFF800
3F867FFE00
3F821FFF00
1F03030780
0E030301C0
00030300C0
0003030F40
0003031FC0
001F031FC0
003E031FC0
007F831F80
007FE30F00
007F730000
003E1B0000
001C0F0000
0000070000
001F870000
007FE30000
00FFF30000
01FC7B0000
01FC1F0000
01FC0F0000
00F8070000
0070070000
0000030000
0000030000
0000030000
0000030000
0000010000
ENDCHAR
STARTCHAR C137
ENCODING 137
SWIDTH 840 0
DWIDTH 42 0
BBX 43 40 0 -9
BITMAP
FFFFFFFFFFE0
FFFFFFFFFFE0
060081800600
020081800600
030081800600
0FE0C1800600
1FF8F1800600
3F8C7FFC0600
3F863FFF0600
3F830FFF8600
1F010183C600
0E018180E600
000181806600
00018187E600
0001818FE600
001F818FE600
003F018FE600
007FC18FE600
007FF187C600
007F39800600
003E0D800600
001C07800600
000003800600
000003800600
000001800600
00001FC00600
00003FF80600
00007FFE0600
00007FBF8600
00007F07C600
00003E01E600
00001C007600
000000003E00
000000001E00
000000000E00
000000000E00
000000000600
000000000600
000000000600
000000000400
ENDCHAR
STARTCHAR C138
ENCODING 138
SWIDTH 660 0
DWIDTH 33 0
BBX 34 32 0 -1
BITMAP
FFFFFFFFC0
FFFFFFFFC0
0001800C00
0001800C00
000FE00C00
003FF80C00
00F9BC0C00
01E18E0C00
0781870C00
0F019F0C00
1E01BF0C00
1F81BF0C00
03C1BF0C00
00F1BF0C00
00799E0C00
001D800C00
000F9E0C00
0007FF8C00
0003F8CC00
0001E06C00
0003C03C00
0207800C00
031F000C00
01FE000C00
0078000C00
0000000C00
0000000C00
0000000C00
0000000C00
0000000C00
0000000C00
0000000400
ENDCHAR
STARTCHAR C139
ENCODING 139
SWIDTH 640 0
DWIDTH 32 0
BBX 30 33 3 -1
BITMAP
00003000
03F03FFC
1FFC3FFC
3F063000
7C033000
7001B000
E000F000
FC007000
FF003000
41803000
00C03000
00403000
00603000
00E03000
00E03000
01C03000
01C03C00
00007FC0
0001F7C0
0007F0C0
001F30C0
003C30C0
00F030C0
00F830C0
001E30C0
000F3180
0003B180
0001F180
0000F180
00007180
00007180
00003080
00003000
ENDCHAR
STARTCHAR C140
ENCODING 140
SWIDTH 560 0
DWIDTH 28 0
BBX 26 33 3 -1
BITMAP
00000C00
03F00FC0
1FFC0FC0
3F070C00
7C018C00
F000CC00
E0006C00
FC003C00
FF001C00
41800C00
00C00C00
00400C00
00600C00
00E00C00
00E00C00
01C00C00
01C00C00
00000C00
00000C00
01F00C00
07FC0C00
0FFF0C00
1F0F8C00
3F83CC00
3F80EC00
3F806C00
1F003C00
0E003C00
00001C00
00001C00
00000C00
00000C00
00000C00
ENDCHAR
STARTCHAR C141
ENCODING 141
SWIDTH 560 0
DWIDTH 28 0
BBX 26 33 3 -1
BITMAP
00000C00
03F00FC0
1FFC0FC0
3F070C00
7C018C00
F000CC00
E0006C00
FC003C00
FF001C00
41800C00
00C00C00
00400C00
00600C00
00E00C00
00E00C00
01C00C00
01C00C00
00003C00
0000FC00
0003EC00
000F8C00
003E0C00
00F80C00
00FC0C00
001F0C00
00078C00
0001CC00
0000EC00
00007C00
00003C00
00001C00
00001C00
00001C00
ENDCHAR
STARTCHAR C142
ENCODING 142
SWIDTH 700 0
DWIDTH 35 0
BBX 34 33 2 -1
BITMAP
00000C0000
03F80FFFC0
1FFE0FFFC0
3F038C0C00
7800CC0C00
F0006C0C00
E0003C0C00
FC001C0C00
FF000C0C00
41800C0C00
00C00C0C00
00400C0C00
00600C0C00
00600C0C00
00E00C0C00
01E00C0C00
01C00C0C00
00000C0C00
0000060C00
0000060C00
00003E0C00
00007E0C00
0000FF8C00
0000FFCC00
0000FFEC00
0000FE7C00
00007C3C00
0000381C00
0000001C00
0000001C00
0000000C00
0000000C00
0000000C00
ENDCHAR
STARTCHAR C143
ENCODING 143
SWIDTH 580 0
DWIDTH 29 0
BBX 26 33 4 -1
BITMAP
00000C00
03F00FC0
1FFC0FC0
3F070C00
7C018C00
F000CC00
E0006C00
FC003C00
FF001C00
41800C00
00C00C00
00400C00
00600C00
00E00C00
00E00C00
01C00C00
01C00C00
00000C00
00000C00
0F800C00
3FE7CC00
78FFEC00
E03C7C00
C0183C00
BC081C00
FE000C00
FE000C00
FE000C00
7E000C00
3C000C00
00000C00
00000C00
00000400
ENDCHAR
STARTCHAR C144
ENCODING 144
SWIDTH 520 0
DWIDTH 26 0
BBX 27 35 0 -4
BITMAP
FFFFFFE0
FFFFFFE0
0F000600
1E000600
1C000600
18000600
18000600
08060600
0C1F0600
07FE0600
01FC0600
00780600
01F00600
03E00600
07800600
03E00600
00380600
000E0600
00030600
0001C600
00006600
003E3600
00FF9E00
01FFCE00
03FDE600
03FC7600
03FC3600
03FC1E00
01F81E00
00F00E00
00000E00
00000600
00000600
00000600
00000400
ENDCHAR
STARTCHAR C145
ENCODING 145
SWIDTH 600 0
DWIDTH 30 0
BBX 31 32 0 -1
BITMAP
FFFFFFFE
FFFFFFFE
0000600C
00006018
03F03018
0FFC1830
1FFF0FE0
1F8F87C0
1F83C000
1F80E000
1F806000
0F003000
00003000
00007C00
0001FF00
000FF780
003F31C0
007830C0
01E030E0
03C03060
07803060
07E031E0
00F033E0
003C33E0
001E33E0
000733E0
0003B1C0
0001F000
0000F000
00007000
00007000
00003000
ENDCHAR
STARTCHAR C146
ENCODING 146
SWIDTH 1220 0
DWIDTH 61 0
BBX 59 35 3 -1
BITMAP
0003C00000000000
000FE00000000000
001FE00000000000
303C3FFFFFFFFFE0
18383FFFFFFFFFE0
1E30718010300000
CFF1F08010300000
C7FFE0C010300000
41FF80C010300000
607E01FC18300000
606003FF1E3FC000
606017F18FFFF000
20603FF0C7FFF800
20607FF061F03C00
3060FFE020300C00
3063E5C030300600
103FC60030300600
183F060030307200
181C06003030FA00
0C0006007031FE00
0C000E03E031FE00
06000E07E031FC00
03001C0FF830F800
03803C0FEE307000
01E0F80FE3300000
00FFF007C1B00000
007FC00380F00000
001F000000700000
0000000000700000
0000000000300000
0000000000300000
0000000000300000
0000000000300000
0000000000300000
0000000000100000
ENDCHAR
STARTCHAR C147
ENCODING 147
SWIDTH 800 0
DWIDTH 40 0
BBX 41 35 0 -1
BITMAP
000070000000
0001F8000000
0003F8001800
FE078C001F80
FF070C001F80
03861C001800
19EE7C001800
08FFF8001800
0C7FE0001800
0C1F80001800
0C0C04001800
0C0C0E001800
040C1F001800
060C7F801800
060FF9C01800
0207E1E01800
030381B01800
010001981800
018003981800
00C003981800
00E007181800
00781F181800
003FFE301800
001FF8601800
0007E0C01800
000001801800
000001E01800
000000781800
0000001E1800
000000071800
000000019800
00000000D800
000000007800
000000003800
000000001800
ENDCHAR
STARTCHAR C148
ENCODING 148
SWIDTH 580 0
DWIDTH 29 0
BBX 30 32 0 -1
BITMAP
FFFFFFFC
FFFFFFFC
0C0600C0
060300C0
02018180
0FC0C180
1FF07F00
1F983EC0
1F8403E0
1F8607C0
0F020FC0
00033FC0
00037D80
0003F180
0007E380
0007C380
000F0300
001E0300
003C0300
00F80300
01F00300
03C00300
1F800300
0F000300
00000300
00000300
00000300
00000100
00000180
00000180
00000180
00000080
ENDCHAR
STARTCHAR C149
ENCODING 149
SWIDTH 900 0
DWIDTH 45 0
BBX 43 35 3 -1
BITMAP
000780000000
001FC0000000
003FC0000000
20787FFFFFE0
30707FFFFFE0
1C60EE000600
9FE3FC000600
CFFFDC000600
C3FF18000600
C0FC18000600
C0C018000600
C0C028000600
40C07C0E0600
60C0F7FE0600
60C1F9FE0600
20C7C83C0600
307F8C780600
307E0CF00600
10380DE00600
18000FC00600
08001F800600
0C001F000600
06003FC00600
070078700600
03C1F01C0600
01FFE0060600
00FF80038600
003E0000C600
000000006600
000000003600
000000001E00
000000000E00
000000000E00
000000000600
000000000600
ENDCHAR
STARTCHAR C150
ENCODING 150
SWIDTH 640 0
DWIDTH 32 0
BBX 30 35 3 -1
BITMAP
00070000
001F8000
003F8000
6078FFFC
3070FFFC
B861C0C0
9EE7C0C0
CFFF80C0
C7FE00C0
C1F800C0
C0C040C0
C0C0E0C0
40C1E0C0
60C7F0C0
60FF90C0
207E18C0
303818C0
100018C0
180038C0
0C0038C0
0E0070C0
0781F0C0
03FFE0C0
01FF80C0
007FC0C0
001FF8C0
003FFCC0
003FFEC0
003FC7C0
001F83C0
000F01C0
000001C0
000000C0
000000C0
000000C0
ENDCHAR
STARTCHAR C151
ENCODING 151
SWIDTH 740 0
DWIDTH 37 0
BBX 38 31 0 0
BITMAP
FFFFFFFFFC
FFFFFFFFFC
0C00600000
0C00600000
0E00600000
0F00700000
0FC0780000
0DF87C0000
0CFF6F0000
0C3FE7C000
0C07E3F800
0C01E0FF00
0C03E03F80
0C03E007C0
0C076000C0
0C076000C0
0C0E6001C0
0C1E6001C0
0C3C600180
04F8600380
07F0600780
07C0600700
0300600E00
0000601E00
0000603C00
0000607800
000021F000
000033E000
00001F8000
00001F0000
00000C0000
ENDCHAR
STARTCHAR C152
ENCODING 152
SWIDTH 740 0
DWIDTH 37 0
BBX 38 32 0 -1
BITMAP
FFFFFFFFFC
FFFFFFFFFC
0C00600000
0C00600000
0E00600000
0F00700000
0FC0780000
0DF86FFC00
0CFF63FF00
0C3FE0E180
0C07E0E080
0C01E1C0C0
0C03E1C0C0
0C03E381C0
0C076781C0
0C073F0380
0C0E1E0780
0C1E000F00
0C3C003E00
04F801FC00
07F00FF000
07C00F8000
0300030000
000001C000
0000006000
0000003000
0000001800
0000000C00
0000000600
0000000300
0000000180
00000000C0
ENDCHAR
STARTCHAR C153
ENCODING 153
SWIDTH 720 0
DWIDTH 36 0
BBX 37 36 0 -5
BITMAP
FFFFFFFFF8
FFFFFFFFF8
0C00C00000
0C00C00000
0E00C00000
0F80E00000
0FF0F80000
0DFECFF800
0C7FC3FE00
0C0FC1C300
0C03C1C180
0C07C38180
0C07C78380
0C0ECF0380
0C1EFE0700
0C3C7C0F00
0C78003E00
04F001FC00
07E01FF000
07C01F8000
0300070000
0000018000
000000C000
0000006000
0000003800
0000000C00
0000000E00
000000FF00
000007FD00
00001F8C00
00001F8C00
000003EC00
000000FC00
0000003C00
0000001C00
0000000C00
ENDCHAR
STARTCHAR C154
ENCODING 154
SWIDTH 640 0
DWIDTH 32 0
BBX 33 32 0 -1
BITMAP
FFFFFFFF80
FFFFFFFF80
0600000000
0700000000
07C0000000
07F8000000
06FF000000
063F800000
0607800000
0603800000
0603800000
0607000000
060F000000
061F01E000
067FC7F000
03FC6E1800
03F8780800
01F0700800
087860F800
087C61F000
087C61F000
087C61F800
083870E800
0800780800
0C006E1800
0C0067F000
060061E000
07FFE00000
03FFE00000
01FFE00000
0000600000
0000200000
ENDCHAR
STARTCHAR C155
ENCODING 155
SWIDTH 940 0
DWIDTH 47 0
BBX 48 32 0 -1
BITMAP
FFFFFFFFFFFF
FFFFFFFFFFFF
007000000000
00F800000000
00CE00000000
218780080000
2181FFFC0000
21007FFC0000
2100003C0000
318380740000
31FFC0E60000
18FFF1C38020
187C7181FFE0
0C0031007FE0
0E0031000060
07807180C060
03E0F9C3C0E0
01FFD8FFE0C0
007F887F70C0
001F0C3C30C0
00000C0010C0
0000060010C0
0000070010C0
0000038030C0
000001E070C0
000000FFE0C0
0000007FC0C0
0000001F80C0
0000000000C0
0000000000C0
0000000000C0
000000000040
ENDCHAR
STARTCHAR C156
ENCODING 156
SWIDTH 940 0
DWIDTH 47 0
BBX 48 38 0 -7
BITMAP
FFFFFFFFFFFF
FFFFFFFFFFFF
007000000000
00F800000000
00CE00000000
218780080000
2181FFFC0000
21007FFC0000
2100003C0000
318380740000
31FFC0E60000
18FFF1C38010
187C7181FFF0
0C0031007FF0
0E0031000070
07807180C060
03E0F9C3C060
01FFD8FFE060
007F887F7060
001F0C3C30E0
00000C0010C0
0000060010C0
0000070010C0
0000038030C0
000001E070C0
000000FFE0C0
0000007FC3C0
0000001F87C0
000000001CC0
000000003860
000000006060
00000000C060
00000001F060
000000007C60
000000000F60
0000000003E0
0000000000E0
000000000020
ENDCHAR
STARTCHAR C157
ENCODING 157
SWIDTH 1200 0
DWIDTH 60 0
BBX 61 33 0 -1
BITMAP
0000000000000180
FFFFFFFFFFFF01F8
FFFFFFFFFFFF81F8
0007000000018180
000F000000018180
001D000000018180
0039800000078180
0030C000001F8180
08607800007D8180
08603FFE01F18180
084007FE07C18180
0840000E1F018180
0840000C3C018180
0860080C70018180
0C707C0DE0018180
0C3FFE0FC0018180
041FF61F80018180
060F831FE0018180
06000318F8018180
030001183C018180
030001180F018180
018003180781C180
01C0031801C1E180
00F0061800E1B180
007C1E180071B180
003FFC1800399980
000FF818001D8D80
0003E018000F8D80
0000001800078780
0000001800078380
0000001800038180
0000000800038000
0000000C00018000
ENDCHAR
STARTCHAR C158
ENCODING 158
SWIDTH 740 0
DWIDTH 37 0
BBX 38 27 0 4
BITMAP
FFFFFFFFFC
FFFFFFFFFC
000F000000
001D800000
0039800000
0070C00000
0060C00F00
20C0603F80
20C03070C0
208030C040
2080198040
20801B0040
30C01E0740
30E0FE0FC0
107FFC0F80
183FEC0F80
181F0607C0
0C00060040
0C00030040
0600038040
070006C040
03800670C0
01E00C3F80
00F83C0F00
007FF80000
001FF00000
0007C00000
ENDCHAR
STARTCHAR C159
ENCODING 159
SWIDTH 720 0
DWIDTH 36 0
BBX 37 37 0 -6
BITMAP
FFFFFFFFF8
FFFFFFFFF8
000E000000
001E000000
003B000000
0071000000
0061800000
20C0E00000
20C0780000
20801FFF80
208007FF80
2080000300
30C0100300
30E0F80700
107FFC0600
183FEC0600
181F060600
0C00060600
0C00020E00
0600020C00
0700060C00
0380060C00
01E00C1C00
00F83C7C00
007FF8EC00
001FF38C00
0007C70C00
00001C0C00
0000380C00
0000700C00
00003C0C00
00000F0C00
000003C400
000000F600
0000003E00
0000000E00
0000000200
ENDCHAR
STARTCHAR C161
ENCODING 161
SWIDTH 600 0
DWIDTH 30 0
BBX 26 41 3 -8
BITMAP
0000FC00
0003FE00
1F070300
7FCC0100
F8780100
F8300100
F8301F00
F8303E00
70303E00
00701F00
00F00100
01F80100
07CC0100
1F870300
3E03FE00
7800FC00
F00C0000
E00F0000
C01D8000
C03C8000
4078C000
61F0C000
3FE1C000
0F83C000
000F8000
003F0000
03FC0000
FFF00000
FF000000
07C00000
00F00000
001C0000
00070000
0001C000
00006000
00003800
00000C00
00000600
00000300
00000180
00000040
ENDCHAR
STARTCHAR C162
ENCODING 162
SWIDTH 680 0
DWIDTH 34 0
BBX 27 35 3 -1
BITMAP
00001F00
00007F80
07C0E0C0
1FE18060
3FF30020
78360020
601C0020
7C1801E0
7E1803E0
7E3803E0
7E7801E0
3CEC0020
01C60020
03830020
07018060
8600E0C0
84007FC0
84001FC0
86000180
C783C180
C3FFC180
61FFE180
607C7300
30003300
38001300
1C001300
0F003300
07C0F300
03FFE300
00FFC300
003F0300
00000300
00000180
00000180
00000080
ENDCHAR
STARTCHAR C163
ENCODING 163
SWIDTH 620 0
DWIDTH 31 0
BBX 25 32 3 -1
BITMAP
00F01E00
01FC7F00
03C6E180
07878080
47070E80
C7861F80
C7C61F00
83C61F80
83870E80
80078080
C006E180
E0067F00
7FF61E00
3FFE0000
1FFF0000
000F0000
000F1800
003F1800
00FB1800
03E31800
0F831800
3E031800
3F031800
07C31800
01E31800
00739800
003BD800
001F7800
000F7800
00073800
00071800
00030000
ENDCHAR
STARTCHAR C164
ENCODING 164
SWIDTH 560 0
DWIDTH 28 0
BBX 29 50 0 -5
BITMAP
80000000
C0000000
70000000
3C000000
0F800000
03FFC000
007FF800
00003E00
00000700
00000180
00000080
00000040
00000040
00000040
FFFFFFF8
FFFFFFF8
01800000
01800000
01800000
01800000
01800000
01800000
01800000
01800000
01801E00
01803F00
01803F80
01803F80
01803F80
01801F80
01800380
01800300
01800700
01800F00
01800E00
01801C00
01803C00
01807C00
0180FE00
10C3E600
18FFC200
1C7F0200
0C3C0200
06000600
07000600
03800C00
01E03C00
00FFF800
007FF000
001FC000
ENDCHAR
STARTCHAR C165
ENCODING 165
SWIDTH 500 0
DWIDTH 25 0
BBX 28 50 -2 -6
BITMAP
C0000000
E0000000
38000000
1F000000
07FF8000
00FFF000
00007C00
00000E00
00000300
00000100
00000080
00000080
00000080
3FFFFFF0
3FFFFFF0
03000000
03000000
03000000
03000000
03000000
03000000
03000000
03003C00
03007E00
03007F00
03007F00
03007F00
03003F00
03000700
03000600
03000E00
03000E00
03001C00
03003C00
03007800
0300F000
0303E000
0187C200
01FF0E00
00FE3E00
0078FE00
0003E600
00078600
0007C600
0001E600
00007600
00003E00
00001E00
00000E00
00000E00
ENDCHAR
STARTCHAR C166
ENCODING 166
SWIDTH 900 0
DWIDTH 45 0
BBX 46 29 0 2
BITMAP
FFFFFFFFFFFC
FFFFFFFFFFFC
001000040000
001000040000
001000040000
001000040000
0010C0040000
0011C0040000
0013E0040000
081F70040200
081E30040700
081C10040F00
0C0010043D80
0C0010047980
06003007F0C0
07007007C0C0
03C1F0038040
01FFD8000040
00FF98000040
003E0C000040
00000C0000C0
0000060000C0
000007000180
000003800380
000001E00700
000000F81E00
0000007FFC00
0000001FF800
00000007E000
ENDCHAR
STARTCHAR C167
ENCODING 167
SWIDTH 780 0
DWIDTH 39 0
BBX 37 45 3 0
BITMAP
0200000000
0180000000
01E0000000
0078000000
001F000000
0007FF8000
0000FFF800
0000007E00
0000000700
0000000180
0000000080
0000000040
0000000040
0000000040
07C0FFFFF8
1FF1FFFFF8
3E19800000
780D800000
7007800000
E003800000
F801800000
FC01800000
FC01800000
FC01800000
FC01800000
7801801E00
0001803F00
0001803F80
0001803F80
0001803F80
0001801F80
0001800380
0001800300
0001800700
0001800700
0001800E00
0001800E00
0001801C00
0001803C00
0001807800
000180F000
0000C3E000
0000FFC000
00007F0000
00003C0000
ENDCHAR
STARTCHAR C168
ENCODING 168
SWIDTH 600 0
DWIDTH 30 0
BBX 23 46 4 2
BITMAP
003800
007800
007000
006000
006000
006000
006000
006000
006000
006000
006000
006000
002000
003000
003000
1F3000
3FD000
787800
F03C00
E01E00
F00E00
F80F00
F80D80
F80CC0
700C60
000C30
001C18
001C08
001C0C
003804
003806
007006
007006
00E006
01E006
03C006
07800E
1F000E
1E001C
18001C
180038
080078
0C01F0
0607E0
03FFC0
00FE00
ENDCHAR
STARTCHAR C169
ENCODING 169
SWIDTH 620 0
DWIDTH 31 0
BBX 26 31 2 1
BITMAP
01F00800
07F81C00
0FFC3E00
0E0E3F00
1F067300
DF83F180
DF81E180
DF81C180
DF80C180
CF000180
40000380
60000380
60000700
6000FF00
6001FE00
2001FE00
3001FE00
3001FF00
1000FB00
18000180
08000080
0C0000C0
040000C0
060001C0
030001C0
03800380
01E00780
00F81F00
007FFE00
001FF800
0007E000
ENDCHAR
STARTCHAR C170
ENCODING 170
SWIDTH 520 0
DWIDTH 26 0
BBX 23 33 4 -1
BITMAP
000060
07E07E
1FF87E
3E0C60
780660
700360
E001E0
F800E0
FC0060
FC0060
FC0060
FC0060
780060
000060
000060
000060
07E060
1FF860
3E0C60
780660
700360
E001E0
F800E0
FC0060
FC0060
FC0060
FC0060
780060
000060
000060
000060
000060
000020
ENDCHAR
STARTCHAR C171
ENCODING 171
SWIDTH 640 0
DWIDTH 32 0
BBX 29 33 4 -1
BITMAP
00018000
0FC1FFF8
3FF1FFF8
7C198180
F00D8180
E0078180
C0038180
F8018180
FC018180
FC018180
FC018180
FC018180
78018180
00018180
00018180
00018180
00018180
00018180
00038180
000FE180
001FF180
003FF980
003FDD80
003FCD80
001F8780
000F0780
00000380
00000380
00000380
00000180
00000180
00000180
00000180
ENDCHAR
STARTCHAR C172
ENCODING 172
SWIDTH 560 0
DWIDTH 28 0
BBX 29 30 0 1
BITMAP
FFFFFFF8
FFFFFFF8
00000000
0001F800
000FFE00
003FFF00
007E0700
10F00180
18E00180
19F00180
19F80380
19F80780
09F8FF00
0CF1FE00
0C01FC00
0C01FC00
0C01FE00
0401FE00
0600F300
06000100
02000180
03000180
01000180
01800380
00C00380
00E00700
00781F00
003FFE00
001FFC00
0007E000
ENDCHAR
STARTCHAR C173
ENCODING 173
SWIDTH 540 0
DWIDTH 27 0
BBX 28 35 0 -4
BITMAP
FFFFFFF0
FFFFFFF0
00000000
0003F800
001FFC00
007FFE00
10FC0600
19E00300
19F00300
19F00700
19F1EF00
09F3FE00
0CE3FC00
0C03F800
0403FC00
0603FE00
0601E600
03000300
03000300
01800300
00C00700
00E00F00
00783E00
003FFC00
001FFC00
0007FC00
0007FC00
001F8C00
001F0C00
0003CC00
0001EC00
00007C00
00003C00
00001C00
00000C00
ENDCHAR
STARTCHAR C174
ENCODING 174
SWIDTH 620 0
DWIDTH 31 0
BBX 29 33 3 -1
BITMAP
00000100
1C0401F8
3F0E01F8
718F0180
60DD8180
F8588180
FC78C180
FC30C180
7830C180
0001C180
00018180
00038180
00070180
001E0180
00FC0180
03F00180
0F800180
0FE00180
01F80180
003E0180
00070180
0001C180
00006180
00003180
00001980
00000D80
00000580
00000380
00000380
00000180
00000180
00000180
00000080
ENDCHAR
STARTCHAR C175
ENCODING 175
SWIDTH 580 0
DWIDTH 29 0
BBX 30 32 0 -1
BITMAP
FFFFFFFC
FFFFFFFC
00007800
3001FE00
3003FF00
1807FF80
1C07F980
0E07F8C0
0603F0C0
0301E040
03800040
01C00040
00E000C0
007000C0
003C0180
001F0780
000FFF00
0003FF00
0000FB00
003F0300
00FFC300
01FFF300
03FCFB00
03FC3F00
03FC0F00
01F80700
00F00300
00000300
00000300
00000300
00000300
00000100
ENDCHAR
STARTCHAR C176
ENCODING 176
SWIDTH 600 0
DWIDTH 30 0
BBX 31 32 0 -1
BITMAP
FFFFFFFE
FFFFFFFE
00003C00
1000FF00
1001FF80
1803FBC0
1803F8C0
0C03F860
0E03F860
0701F020
0300E020
01800020
01C00020
00E00060
00700060
003C00C0
001F03C0
000FFF80
0003FF80
0000FF80
00007F80
0001F180
000FC180
000FC180
0001F180
00007980
00001D80
00000F80
00000780
00000380
00000380
00000180
ENDCHAR
STARTCHAR C177
ENCODING 177
SWIDTH 740 0
DWIDTH 37 0
BBX 38 32 0 -1
BITMAP
FFFFFFFFFC
FFFFFFFFFC
00007C00C0
1000FF00C0
1801FF80C0
1803FBC0C0
0C03F8C0C0
0E03F860C0
0601F060C0
0300E020C0
03800020C0
01C00020C0
00E00060C0
00700060C0
003C00C0C0
001F03C0C0
000FFF80C0
0003FF00C0
0000FC00C0
00003E00C0
00007FC0C0
0000FFF0C0
0000FFF8C0
0000FE3CC0
00007C0EC0
00003807C0
00000003C0
00000001C0
00000001C0
00000000C0
00000000C0
00000000C0
ENDCHAR
STARTCHAR C178
ENCODING 178
SWIDTH 660 0
DWIDTH 33 0
BBX 34 32 0 -1
BITMAP
FFFFFFFFC0
FFFFFFFFC0
0000000000
00000FC000
00003FF000
00007C1800
0000F00C00
0001E00C00
0003C00C00
0003800C00
0407000C00
0407E00C00
0407F00C00
0C07F80C00
0C07F80C00
0803F80C00
0803F00C00
0801E00C00
0800000C00
0800000C00
0C00000C00
0C00000C00
0600000C00
0700000C00
03C0000C00
01F8000C00
00FFFFCC00
003FFFFC00
0007FFFC00
0000003C00
0000000C00
0000000C00
ENDCHAR
STARTCHAR C179
ENCODING 179
SWIDTH 800 0
DWIDTH 40 0
BBX 41 32 0 -1
BITMAP
FFFFFFFFFF80
FFFFFFFFFF80
000000000000
00003F000000
0000FFC00000
0001F0600000
0003C060F000
00038061F800
00070063FC00
00070063FE00
000E0063FE00
040F8061F600
0C0FC060E600
0C0FE0600600
080FE0600C00
080FE0600C00
0807C0783800
0803807FF000
08000067C000
080000600000
0C0000600000
0C0000600000
040000600000
060000600000
070000600000
03E000600000
01FFFF600000
00FFFFE00000
001FFFE00000
000000E00000
000000600000
000000200000
ENDCHAR
STARTCHAR C180
ENCODING 180
SWIDTH 860 0
DWIDTH 43 0
BBX 44 33 0 -1
BITMAP
000000000300
FFFFE0FC03F0
FFFFE7FF03F0
18000FC1C300
18001F006300
18001C003300
180038001B00
180038000B00
18003F000F00
1800FFC00700
1803E0600300
1807C0300300
181EC0100300
183CC0180300
1870C0180300
18E0C0380300
19C0C0780300
1B8180700300
1B0180200300
1F0180000300
1E0180000300
1C0180000300
000180000300
000180000300
000180000300
000180000300
000180000300
000180000300
000180000300
000180000300
000180000300
000180000300
000080000300
ENDCHAR
STARTCHAR C181
ENCODING 181
SWIDTH 840 0
DWIDTH 42 0
BBX 43 32 0 -1
BITMAP
FFFFFFFFFFE0
FFFFFFFFFFE0
18001E000600
18001C000600
180038000600
180038000600
180030000600
180030000600
1800F0000600
1803F80E0600
1807CFFE0600
181EC3FE0600
183CC03C0600
1870C0780600
18E0C0F00600
19C0C1E00600
1B8183C00600
1F0187800600
1E018F000600
1E0187C00600
1C0180700600
0801801C0600
000180060600
000180038600
00018000C600
000180006600
000180003600
000180001E00
000180000E00
000180000E00
000180000600
000080000600
ENDCHAR
STARTCHAR C182
ENCODING 182
SWIDTH 580 0
DWIDTH 29 0
BBX 30 32 0 -1
BITMAP
FFFFFFFC
FFFFFFFC
18000000
18000000
18000000
180E0000
183E0000
18FE0000
19E60180
1B860380
1F0C0780
1E0C0F80
1C0C1F00
180C3B00
000C7300
000CE300
000CC300
000DC600
000F8600
000F0600
00060600
00060600
00000600
00000600
00000600
00000600
00000600
00000600
00000600
00000300
00000300
00000100
ENDCHAR
STARTCHAR C183
ENCODING 183
SWIDTH 620 0
DWIDTH 31 0
BBX 32 32 0 -1
BITMAP
FFFFFFFF
FFFFFFFF
18000000
18000000
18000000
18000000
18000000
18000000
1801E000
1807F000
181E1800
18781800
19E01800
1B801FF0
1E007FF0
1C03F830
080FD830
001E1830
00781830
00F01830
01E01830
01F81830
003C1830
000F1860
00079860
0001D860
0000F860
00007860
00003860
00003860
00001820
00001800
ENDCHAR
STARTCHAR C184
ENCODING 184
SWIDTH 520 0
DWIDTH 26 0
BBX 27 32 0 -1
BITMAP
FFFFFFE0
FFFFFFE0
18000000
18000000
18000000
18000000
18000000
18000000
18007800
1803FC00
180F8600
183C0600
18F00600
1BC00E00
1F003E00
1C00FE00
0803E600
000F8600
003E0600
00780600
00F00600
00FC0600
001E0600
00078600
0003C600
0000E600
00007600
00003E00
00001E00
00001E00
00000E00
00000E00
ENDCHAR
STARTCHAR C185
ENCODING 185
SWIDTH 620 0
DWIDTH 31 0
BBX 32 32 0 -1
BITMAP
FFFFFFFF
FFFFFFFF
0C000000
0C000000
0C000000
0C03C000
0C0FC000
0C3F8000
0C798000
0CE18000
0DC18000
0F830000
0F030000
0E030000
00030000
100F0000
181F0180
183F8380
083F87C0
0C3F9E60
041FFC60
061FF830
0207E030
03000030
01800030
01C00070
00E00060
007800E0
003E07C0
001FFF80
0007FE00
0001F800
ENDCHAR
STARTCHAR C186
ENCODING 186
SWIDTH 620 0
DWIDTH 31 0
BBX 32 32 0 -1
BITMAP
FFFFFFFF
FFFFFFFF
0C000000
0C000000
0C000000
0C03C000
0C0FC000
0C3F8000
0C798000
0CE18000
0DC18000
0F830000
0F030000
0E030000
00030000
00030180
001F03E0
043F83E0
0C3F8F70
0C3FBE30
083FFC30
081FF030
0C0FC030
0C000030
06000030
07000030
03C01F30
01FFFFF0
00FFFFF0
003FE0F0
00000030
00000030
ENDCHAR
STARTCHAR C187
ENCODING 187
SWIDTH 560 0
DWIDTH 28 0
BBX 29 32 0 -1
BITMAP
FFFFFFF8
FFFFFFF8
18000180
18000180
18000180
18000180
1800C180
1803E180
180FC180
181EC180
1878C180
18F0C180
19C0C180
1B818180
1F018180
1E018180
1C018180
18018180
00018180
00018180
00018180
000F8180
001FE180
003FF980
003FFD80
003F8F80
001F0780
000E0380
00000380
00000180
00000180
00000180
ENDCHAR
STARTCHAR C188
ENCODING 188
SWIDTH 500 0
DWIDTH 25 0
BBX 24 36 2 -4
BITMAP
03C000
07E03F
0FE03F
0FE030
0DC0F0
0C07F0
071FB0
03FC30
00F030
03C030
078030
1E0030
1E0030
1F8030
03E030
00F030
003C30
001E30
000730
0003B0
0001F0
0000F0
0FE070
3FFC70
7FFE30
FF1F30
FF03B0
FF01F0
FF00F0
7E0070
3C0070
000070
000030
000030
000030
000020
ENDCHAR
STARTCHAR C189
ENCODING 189
SWIDTH 920 0
DWIDTH 46 0
BBX 44 33 3 -1
BITMAP
078000000000
0FC00FFFFFF0
1FC01FFFFFF0
37C018000300
338018000300
300078000300
3001F8001F00
1807D8007F00
0E1F1801F300
07FC1807C300
01F0181F0300
03C0183C0300
078018F00300
0E0019E00300
3C001F800300
78001F000300
F0001E000300
FE001FC00300
1F801BF00300
03C018780300
00F0181E0300
0078180F0300
001C18038300
000E1801C300
00071800E300
000398007300
0001D8003B00
0000D8001B00
0000F8001F00
000078000F00
000038000700
000038000700
000038000700
ENDCHAR
STARTCHAR C190
ENCODING 190
SWIDTH 780 0
DWIDTH 39 0
BBX 40 46 0 -1
BITMAP
0040000000
0030000000
003C000000
000F000000
0003E00000
0000FFF000
00001FFF00
0000000FC0
00000000E0
0000000030
0000000010
0000000008
0000000008
0000000008
FFFFFFFFFF
FFFFFFFFFF
0000300000
0000300000
0000300000
0000300000
0000300000
07F0300000
07FC300000
0FFE300000
1FCF300000
1FC3B003C0
1FC1B007E0
0F80F007F0
0700F007F0
00007007F0
00007003F0
0000300070
0000300070
0000300060
00003000E0
00003000E0
00003001C0
00003001C0
0000300380
0000300780
0000300F00
0000301E00
0000187C00
00001FF800
00000FE000
0000078000
ENDCHAR
STARTCHAR C191
ENCODING 191
SWIDTH 620 0
DWIDTH 31 0
BBX 32 29 0 2
BITMAP
FFFFFFFF
FFFFFFFF
00018000
00018000
07C18000
1FF18000
3FF98000
7F3D8000
7F0F8000
7F078080
3E0381C0
1C0183C0
00018F60
00019E60
1001FC30
1801F030
1800E010
0C000010
0C000010
06000010
06000030
03000030
03800060
01C000E0
00F003C0
007C0F80
003FFF00
000FFC00
0003F000
ENDCHAR
STARTCHAR C192
ENCODING 192
SWIDTH 620 0
DWIDTH 31 0
BBX 32 32 0 -1
BITMAP
FFFFFFFF
FFFFFFFF
00000020
00000030
00000030
00000030
00780030
007C0030
00FF0030
11FF8070
11FFC070
11FCF0E0
18F87FE0
18703FC0
0C001F00
0C003F80
06007FC0
06007FE0
03007F70
03007F30
01803E18
01C01C18
00C00008
00600008
00700008
00380018
001C0018
000F0030
0007C0F0
0003FFE0
0000FFC0
00003F00
ENDCHAR
STARTCHAR C193
ENCODING 193
SWIDTH 600 0
DWIDTH 30 0
BBX 31 35 0 -4
BITMAP
FFFFFFFE
FFFFFFFE
00000200
00000300
00000300
03800300
07E00300
0FF80700
1FFC0700
1FDF0E00
1FC7FE00
0F83FC00
0700FE00
0003FF80
000FFFC0
041F81C0
063C0060
067C0060
067E00E0
067E01E0
027E3FC0
033C7F80
03007F00
01007F80
01807FC0
01803CC0
00C00060
00C00060
00600060
003000E0
003801E0
001E07C0
000FFF80
0007FE00
0001F800
ENDCHAR
STARTCHAR C194
ENCODING 194
SWIDTH 600 0
DWIDTH 30 0
BBX 31 36 0 -5
BITMAP
FFFFFFFE
FFFFFFFE
00000040
00000060
00000060
00700060
00FC0060
01FF00E0
13FF80E0
13FBE1C0
1BF8FFC0
19F07F80
0CE03E00
0C007F80
0600FFC0
0700FFE0
0300FE60
0180FE30
01C07C30
00E03810
00700010
00380010
001E0030
000F80F0
0007FFE0
0001FFC0
00007FC0
00000FC0
00003FC0
0000F8C0
0000F8C0
00001EC0
00000FC0
000003C0
000001C0
000001C0
ENDCHAR
STARTCHAR C195
ENCODING 195
SWIDTH 620 0
DWIDTH 31 0
BBX 32 34 0 -3
BITMAP
FFFFFFFF
FFFFFFFF
00000020
00000030
00000030
00780030
007E0030
00FF0070
01FFC070
01FDF0E0
01FCFFE0
00F83FC0
00707FE0
0000F830
0001E030
0003C030
00038030
04070030
0407C030
0C07E030
0C07E030
0807E030
0803E030
0801C030
08000030
0C000030
0C000030
06000030
07800030
03FFFF30
01FFFFF0
007FFFF0
000000F0
00000030
ENDCHAR
STARTCHAR C196
ENCODING 196
SWIDTH 600 0
DWIDTH 30 0
BBX 31 35 0 -4
BITMAP
FFFFFFFE
FFFFFFFE
00000200
00000300
00000300
03800300
07E00300
0FF80700
1FFC0700
1FDF0E00
1FC7FE00
0F83FC00
070FFC00
001FFF00
003F8180
003F8080
003F00C0
001E00C0
000000C0
000001C0
000001C0
00000380
00300780
00181F00
000FFE00
0003F800
0000E000
00003800
00000C00
00000700
00000180
000000C0
00000070
00000018
00000008
ENDCHAR
STARTCHAR C197
ENCODING 197
SWIDTH 680 0
DWIDTH 34 0
BBX 35 32 0 -1
BITMAP
FFFFFFFFE0
FFFFFFFFE0
0000C00000
0000C00000
0000C00000
0000C00000
0000C00000
0FC0C00000
1FF0C00700
3FF8C01F00
7FBCC03F00
7F8EC0F600
7F86C1E600
3F03C38600
1E03C70600
0001CE0600
0001DC0600
0000F80C00
0000F00C00
0000F00C00
0000E00C00
0000400C00
0000000C00
0000000C00
0000000C00
0000000C00
0000000C00
0000000C00
0000000C00
0000000C00
0000000C00
0000000400
ENDCHAR
STARTCHAR C198
ENCODING 198
SWIDTH 620 0
DWIDTH 31 0
BBX 32 32 0 -1
BITMAP
FFFFFFFF
FFFFFFFF
00000C00
00000C00
00000C00
01F80C00
07FE0C00
0FFF8C00
1FE7CC00
1FE0EC00
1FE06C00
1FE03C00
0FC03C00
07801F00
00001FF0
00007DF0
0001FC30
0007CC30
001F0C30
003C0C30
00F00C30
00FC0C30
001F0C30
00078C60
0001CC60
0000EC60
00007C60
00003C60
00003C60
00001C60
00001C20
00000C00
ENDCHAR
STARTCHAR C199
ENCODING 199
SWIDTH 520 0
DWIDTH 26 0
BBX 27 32 0 -1
BITMAP
FFFFFFE0
FFFFFFE0
00000600
00000600
00000600
00000600
01F80600
07FE0600
0FFF8600
1F87C600
3FC1E600
3FC07600
3FC03600
1F801E00
0F001E00
00000E00
00000E00
00000600
01F80600
07FE0600
0FFF8600
1F87C600
3FC1E600
3FC07600
3FC03600
1F801E00
0F001E00
00000E00
00000E00
00000600
00000600
00000600
ENDCHAR
STARTCHAR C200
ENCODING 200
SWIDTH 540 0
DWIDTH 27 0
BBX 28 32 0 -1
BITMAP
FFFFFFF0
FFFFFFF0
00000300
00000300
00000300
00000300
00000300
03FC0300
0FFF0300
1FFFC300
3FC3E300
3FC0F300
3FC03B00
1F801F00
0F000F00
00000700
00000700
00003F00
0000FF00
0003E300
00078300
001E0300
001F0300
0003C300
0001E300
00007300
00003B00
00001F00
00000F00
00000F00
00000700
00000700
ENDCHAR
STARTCHAR C201
ENCODING 201
SWIDTH 640 0
DWIDTH 32 0
BBX 33 32 0 -1
BITMAP
FFFFFFFF80
FFFFFFFF80
0000181800
0000181800
01F0181800
07FC181800
0FFF181800
1F0F981800
3F83D81800
3F80F81800
3F80781800
1F00381800
0E00381800
0000181800
0000181800
0000181800
0000181800
0000181800
0000F81800
0001FE1800
0003FF1800
0003FF9800
0003FDD800
0003FCD800
0001F87800
0000F07800
0000003800
0000003800
0000001800
0000001800
0000001800
0000001800
ENDCHAR
STARTCHAR C202
ENCODING 202
SWIDTH 700 0
DWIDTH 35 0
BBX 36 32 0 -1
BITMAP
FFFFFFFFF0
FFFFFFFFF0
00FC000300
001E000300
0007000300
0003000300
0001800300
0001800300
0000C00300
03E0C00300
0FF8400300
1FFC600300
1F1E600300
1F07278300
0E033FE300
0001BE3300
0001F81B00
0000F00F00
0301E00700
0303C00300
0107800300
018F000300
00FE000300
003C000300
0000000300
0000000300
0000000300
0000000300
0000000300
0000000300
0000000300
0000000100
ENDCHAR
STARTCHAR C203
ENCODING 203
SWIDTH 800 0
DWIDTH 40 0
BBX 39 45 2 0
BITMAP
0080000000
00C0000000
0070000000
003C000000
000F800000
0003FFE000
00007FFE00
0000001F80
00000001C0
0000000060
0000000020
0000000010
0000000010
0000000010
00007FFFFE
00007FFFFE
07E0600000
1FF8600000
7C0E600000
F00E600000
F81F600000
0C3DE00000
04F8E00000
07F0600000
07C0600000
0780600780
0F00600FC0
0E00600FE0
0000600FE0
0000600FE0
00006007E0
00006000E0
00006000C0
00006001C0
00006001C0
0000600380
0000600380
0000600700
0000600F00
0000601E00
0000603C00
000030F800
00003FF000
00001FC000
00000F0000
ENDCHAR
STARTCHAR C204
ENCODING 204
SWIDTH 640 0
DWIDTH 32 0
BBX 31 33 2 -1
BITMAP
00000180
00FE01FE
07FF81FE
0F80C180
3C007180
7C007980
7F01FD80
0183E580
00878780
00DF0180
C0FE0180
C0F80180
41F00180
63E00180
63C00180
31007D80
3000FF80
1801FF80
1801FFC0
0C01FCC0
0C01FC60
0600F860
07007020
03000020
01800020
01C00020
00E00060
00700060
003C00C0
001F03C0
000FFF80
0003FF00
0000FC00
ENDCHAR
STARTCHAR C205
ENCODING 205
SWIDTH 600 0
DWIDTH 30 0
BBX 28 33 3 -1
BITMAP
00000300
01F803F0
07FE03F0
1F038300
7800C300
F000E300
FC03F300
0607DB00
030F0F00
011E0700
01BC0300
01F80300
01F00300
03C00300
07800300
07000300
02000300
00000300
00000300
00000300
00FE0300
01FF8300
03FFE300
07F1F300
07F03B00
07F01F00
03E00F00
01C00700
00000700
00000700
00000300
00000300
00000300
ENDCHAR
STARTCHAR C206
ENCODING 206
SWIDTH 600 0
DWIDTH 30 0
BBX 28 33 3 -1
BITMAP
00000300
01F803F0
0FFE03F0
3F038300
7800C300
F001E300
FC03F300
06079B00
030F0F00
013E0300
01FC0300
01F00300
03E00300
07C00300
07000300
06000300
00000300
00000300
01F80300
0FFE0300
3F038300
7800C300
F000E300
FC03F300
0607DB00
030F0F00
013E0700
01FC0300
01F00300
03E00300
07C00300
07000300
06000300
ENDCHAR
STARTCHAR C207
ENCODING 207
SWIDTH 600 0
DWIDTH 30 0
BBX 28 33 3 -1
BITMAP
00000300
01F803F0
07FE03F0
1F038300
7800C300
F000E300
FC03F300
0607DB00
030F0F00
011E0700
01BC0300
01F80300
01F00300
03C00300
07800300
07000300
02000300
00000300
03E00300
07F9F300
0E3FFB00
1C0F1F00
18060F00
1F020700
1F820700
1F800300
1F800300
1F800300
0F000300
00000300
00000300
00000300
00000100
ENDCHAR
STARTCHAR C208
ENCODING 208
SWIDTH 700 0
DWIDTH 35 0
BBX 36 32 0 -1
BITMAP
FFFFFFFFF0
FFFFFFFFF0
00FC000300
001E000300
0007000300
0003000300
0001800300
03E1800300
0FF8C00300
1E0CC00300
1F3E400300
017E600300
01F1600300
01E0278300
03C03FE300
03803E3300
0100781B00
0000F00F00
0301E00700
0303C00300
0107800300
018F000300
00FE000300
003C000300
0000000300
0000000300
0000000300
0000000300
0000000300
0000000300
0000000300
0000000100
ENDCHAR
STARTCHAR C209
ENCODING 209
SWIDTH 680 0
DWIDTH 34 0
BBX 35 34 0 -3
BITMAP
FFFFFFFFE0
FFFFFFFFE0
03C0000000
0070000000
001803C000
000C03F800
000603FC00
0007033E00
000F030700
001E030300
003C030100
0078030100
0070030100
007C030100
0007031F00
0001C33F00
0000633E00
0000333E00
00001B1C00
00000F0000
00000F0000
01F8F70000
07FFFF0000
0F0F9F0000
0C030F0000
0F81070000
0FC1030000
0FC0030000
0FC0030000
0FC0030000
0780030000
0000030000
0000030000
0000010000
ENDCHAR
STARTCHAR C210
ENCODING 210
SWIDTH 680 0
DWIDTH 34 0
BBX 35 31 0 0
BITMAP
FFFFFFFFE0
FFFFFFFFE0
0006000000
001E000000
007E000000
01F7000000
07C7E00E00
1F06FFFF00
1F861FF700
03C6000E00
20E6000E00
2076100C00
203E781C00
301EFC1C00
300FEE1C00
100F861800
180F031800
1800031800
0C00011800
0E00011800
0700031800
0380031800
01E0061800
00FC1E0800
007FFC0800
001FF80C00
0003E00C00
0000000C00
0000000400
0000000600
0000000600
ENDCHAR
STARTCHAR C211
ENCODING 211
SWIDTH 640 0
DWIDTH 32 0
BBX 33 32 0 -1
BITMAP
FFFFFFFF80
FFFFFFFF80
0003000000
0003000000
000F000000
003F000000
00FB000000
03E3000000
0F83001C00
3E03007C00
3F0300FC00
078303D800
01E3079800
00F30E1800
003B1C1800
001F381800
000F703000
0007E03000
0003C03000
0003C03000
0003803000
0001003000
0000003000
0000003000
0000003000
0000003000
0000003000
0000003000
0000003000
0000003000
0000003000
0000001000
ENDCHAR
STARTCHAR C212
ENCODING 212
SWIDTH 640 0
DWIDTH 32 0
BBX 33 32 0 -1
BITMAP
FFFFFFFF80
FFFFFFFF80
00000C0000
00003C0000
0001FC0000
000FEC0000
003F0C0000
00F80C0000
03E00C0000
0F800C0000
1E000E0000
1C001FF800
0E00FFF800
0703FC1800
03C78C1800
01FE0C1800
007C0C1800
00F00C1800
01E00C1800
01E00C1800
01F80C1800
003C0C3000
000F0C3000
00078C3000
0001CC3000
0000EC3000
00007C3000
00003C3000
00003C3000
00001C3000
00001C1000
00000C0000
ENDCHAR
STARTCHAR C213
ENCODING 213
SWIDTH 540 0
DWIDTH 27 0
BBX 28 32 0 -1
BITMAP
FFFFFFF0
FFFFFFF0
00000300
00001F00
0000FF00
0007F300
003F8300
00FC0300
03E00300
0F800300
1E000300
1C000F00
0E007F00
0781FB00
03C7C300
00FF0300
007C0300
01F00300
03C00300
07800300
07F00300
00FC0300
001E0300
00078300
0003C300
0000E300
00007300
00003B00
00001F00
00000F00
00000700
00000700
ENDCHAR
STARTCHAR C214
ENCODING 214
SWIDTH 540 0
DWIDTH 27 0
BBX 28 32 0 -1
BITMAP
FFFFFFF0
FFFFFFF0
00000300
00000700
00007F00
0003FF00
000FC300
003E0300
00F80300
03E00300
03F00300
007C0300
001F0300
00078300
0001E300
0000F300
00003B00
00001F00
01F00F00
07FCF700
0F1FFF00
1C079F00
18030F00
17830700
1FC00300
1FC00300
1FC00300
0FC00300
07800300
00000300
00000300
00000100
ENDCHAR
STARTCHAR C215
ENCODING 215
SWIDTH 700 0
DWIDTH 35 0
BBX 36 32 0 -1
BITMAP
FFFFFFFFF0
FFFFFFFFF0
0000000000
0000000000
0000000000
0000000000
0000001800
0000003C00
0000007E00
0000006600
060700E300
060F81C300
0C1FC78300
0C1FDF0300
081FFE0300
080FF80300
0807E00300
0800000300
0800000300
0C00000300
0C00000300
0600000300
0700000300
0380000300
01E0000300
00FFFFE300
007FFFFB00
001FFFFF00
0000001F00
0000000700
0000000300
0000000300
ENDCHAR
STARTCHAR C216
ENCODING 216
SWIDTH 600 0
DWIDTH 30 0
BBX 31 34 0 -3
BITMAP
FFFFFFFE
FFFFFFFE
00000000
101C0000
103E0300
187F0700
187F0F80
087F3CC0
0C3FF8C0
041FF060
060FC060
03000060
038000E0
01C000C0
00F001C0
007C0F80
003FFF80
000FFD80
0003F180
00000180
00000180
01FC7D80
07FFFF80
0F07C780
0C018380
0BC08180
0FE08180
0FE00180
0FE00180
07E00180
03C00180
00000180
00000180
00000080
ENDCHAR
STARTCHAR C217
ENCODING 217
SWIDTH 560 0
DWIDTH 28 0
BBX 29 32 0 -1
BITMAP
FFFFFFF8
FFFFFFF8
03800100
01800180
00C00080
00C000C0
07C000C0
0FE000C0
1FF801C0
1FFC01C0
1FDE0380
0F878780
0703FF80
0001FF80
00007980
00000180
00000180
00000180
007E0180
03FF8180
03FFE180
07C1F180
0FE07980
0FE01D80
0FE00D80
07C00780
03800780
00000380
00000380
00000180
00000180
00000180
ENDCHAR
STARTCHAR C218
ENCODING 218
SWIDTH 1000 0
DWIDTH 50 0
BBX 51 33 0 -1
BITMAP
00000000000600
FFFFF007E007E0
FFFFF03FF807E0
030018FC0E0600
018009E0030600
01800F80018600
0F800FE003C600
1FE00C300FE600
3FF01C181F3600
3FFC3C083C1E00
3F9FF80C780E00
1F0FF00DF00600
0E03C00FE00600
0000000F800600
0000001F000600
0000003E000600
0000003C000600
00000030000600
00000000000600
00000000000600
00000000000600
00000000000600
00000000000600
00000000000600
00000000000600
00000000000600
00000000000600
00000000000600
00000000000600
00000000000600
00000000000600
00000000000600
00000000000200
ENDCHAR
STARTCHAR C219
ENCODING 219
SWIDTH 940 0
DWIDTH 47 0
BBX 48 32 0 -1
BITMAP
FFFFFFFFFFFF
FFFFFFFFFFFF
03000C000000
01800C000000
018006000000
0F8006001E00
1FE006001FC0
1FF006001FE0
1FF80E0019F0
1F9E1E001830
1F8FFF801818
0F07F8C01818
0001E0601808
000000E01808
000001E01808
000001C01818
0000038018F8
0000078019F0
00000F0019F0
00000E0019F0
00001C0018E0
00000F801800
000001E01800
000000381800
0000000C1800
000000071800
000000019800
00000000D800
000000007800
000000003800
000000003800
000000001800
ENDCHAR
STARTCHAR C220
ENCODING 220
SWIDTH 560 0
DWIDTH 28 0
BBX 29 32 0 -1
BITMAP
FFFFFFF8
FFFFFFF8
03800180
018001C0
00C000C0
00C00060
07C00060
0FE00060
1FF800E0
1FFC00E0
1FDF01C0
0F8783C0
0703FF80
0000FF80
00007F80
00001F80
0000FF80
0003F180
000F8180
003E0180
00F80180
00FC0180
001F0180
00078180
0001E180
0000F180
00003980
00001D80
00000F80
00000780
00000380
00000380
ENDCHAR
STARTCHAR C221
ENCODING 221
SWIDTH 640 0
DWIDTH 32 0
BBX 33 32 0 -1
BITMAP
FFFFFFFF80
FFFFFFFF80
00C000C000
00C0006000
0060002000
0060003000
03E0003000
07F0003000
0FFC007000
0FFE007000
0FEF80E000
07C3C1E000
0381FFC000
00007F8000
180E3E8000
181F01C000
083F83E000
0C3F876000
0C3F9E3000
041FFC1000
060FF81800
0607E01800
0300001800
0300001800
0180003800
00C0003000
00E0007000
007800E000
003E07C000
001FFF8000
0007FE0000
0001F80000
ENDCHAR
STARTCHAR C222
ENCODING 222
SWIDTH 620 0
DWIDTH 31 0
BBX 32 32 0 -1
BITMAP
FFFFFFFF
FFFFFFFF
00C00180
00C000C0
00600040
03E00060
07F00060
0FF800E0
0FFE00E0
0FEF01C0
07C7C3C0
0381FF80
0000FF00
00003D80
000E03C0
041F03E0
043F8770
0C3F8E30
0C3FBC30
081FF830
081FF030
080FC030
0C000030
0C000030
06000030
07800030
03FFFFB0
01FFFFF0
007FFFF0
00000070
00000030
00000030
ENDCHAR
STARTCHAR C223
ENCODING 223
SWIDTH 700 0
DWIDTH 35 0
BBX 36 32 0 -1
BITMAP
FFFFFFFFF0
FFFFFFFFF0
0380018300
018000C300
00C0004300
00C0006300
0FC0006300
1FE0006300
1FF800E300
1FFC00E300
1F9E01C300
1F8783C300
0F03FF8300
0001FF0300
00007F0300
0000018300
0000018300
0000078300
00000FC300
00001FE300
00003FF300
00003FBB00
00003F9B00
00001F0F00
00000E0F00
0000000700
0000000700
0000000700
0000000300
0000000300
0000000300
0000000300
ENDCHAR
STARTCHAR C224
ENCODING 224
SWIDTH 580 0
DWIDTH 29 0
BBX 30 32 0 -1
BITMAP
FFFFFFFC
FFFFFFFC
01800080
018000C0
00C00040
00C00060
07C00060
0FE00060
1FF800E0
1FFC00E0
1FDF01C0
0F8783C0
0703FFC0
0000FFC0
00007CC0
000000C0
000000C0
00F800C0
03FE7CC0
078FFEC0
0E03C7C0
0C0183C0
0BC081C0
0FE081C0
0FE000C0
0FE000C0
07E000C0
03C000C0
000000C0
000000C0
000000C0
00000040
ENDCHAR
STARTCHAR C225
ENCODING 225
SWIDTH 640 0
DWIDTH 32 0
BBX 33 32 0 -1
BITMAP
FFFFFFFF80
FFFFFFFF80
00000C0000
00000C0000
00000C0000
03F00C0000
07F9EC0000
0E1FFC0000
1C0F3C0000
18061C0000
1F041C0000
1F840C0000
1F800C0000
1F800C0000
1F807F0000
0F01FFC000
0007CDE000
001F0C7000
003C0C3000
00F00C3800
01E00C1800
01F80C7800
003C0CF800
000F0CF800
00078CF800
0001CCF800
0000EC7000
00007C0000
00003C0000
00001C0000
00001C0000
00000C0000
ENDCHAR
STARTCHAR C226
ENCODING 226
SWIDTH 600 0
DWIDTH 30 0
BBX 31 32 0 -1
BITMAP
FFFFFFFE
FFFFFFFE
00000060
00000060
00000060
01F80060
07FE3C60
0F0F7E60
1C03E760
1801C3E0
178081E0
1FC080E0
1FC00060
1FC00060
0FC00060
078FC060
007FF060
00FC1C60
01F00660
01C00360
03800160
03F001E0
03FC00E0
01060060
00020060
00030060
00030060
00030060
00070060
000F0060
00060060
00000020
ENDCHAR
STARTCHAR C227
ENCODING 227
SWIDTH 600 0
DWIDTH 30 0
BBX 31 36 0 -5
BITMAP
FFFFFFFE
FFFFFFFE
00000180
00000180
01F80180
07FE7980
0F0FFD80
1C03CF80
18018780
17818380
1FC00180
1FC00180
1FC00180
0FC00180
078FC180
003FF180
007FF980
04F03FC0
06FE0FC0
06FF0760
067F0360
06018060
06018760
02038FE0
030F9FE0
010F1FE0
01841FF0
00800FB0
00C00718
00600018
00700018
003C0038
001F00F8
000FFFF0
0003FFE0
0000FF00
ENDCHAR
STARTCHAR C228
ENCODING 228
SWIDTH 800 0
DWIDTH 40 0
BBX 41 46 0 -1
BITMAP
002000000000
003000000000
001C00000000
000F00000000
0003E0000000
0000FFF80000
00001FFF8000
00000007E000
000000007000
000000001800
000000000800
000000000400
000000000400
000000000400
FFFFFFFFFF80
FFFFFFFFFF80
000038000000
000038000000
000038000000
07E038000000
0FF3F8000000
1C3FF8000000
181E78000000
100C38000000
1F0C38000000
1F843801E000
1F803803F000
1F803803F800
1F803803F800
0F003803F800
00003801F800
000038003800
000038003000
000038007000
000030007000
00003000E000
00003000E000
00003001C000
00003003C000
000030078000
0000300F0000
0000301E0000
0000187C0000
00001FF80000
00000FE00000
000007800000
ENDCHAR
STARTCHAR C229
ENCODING 229
SWIDTH 720 0
DWIDTH 36 0
BBX 37 29 0 2
BITMAP
FFFFFFFFF8
FFFFFFFFF8
00000C0000
07E00C0000
0FFBEC0000
1C3FFC0000
180E3C0000
1F041C0000
1F841C0000
1F800C0400
1F800C0E00
1F800C1E00
0F000C7B00
00000CF300
00400FE180
00400F8180
0040070080
0060000080
0060000080
0030000080
0030000180
0018000180
001C000300
000E000700
0007801E00
0003E07C00
0001FFF800
00007FE000
00001F8000
ENDCHAR
STARTCHAR C230
ENCODING 230
SWIDTH 600 0
DWIDTH 30 0
BBX 31 31 0 0
BITMAP
FFFFFFFE
FFFFFFFE
00000060
00000060
007C3E60
01FF7F60
03C7E3E0
0701C1E0
0600C0E0
07C040E0
07E00060
07E00060
07E00060
03C00060
00000060
00000060
003F0060
01FFC060
07E07060
0F001860
1E001C60
1F807E60
00C0FB60
0043E1E0
0067C060
006F0060
007E0060
007C0060
00F00060
00E00060
00000060
ENDCHAR
STARTCHAR C231
ENCODING 231
SWIDTH 600 0
DWIDTH 30 0
BBX 31 32 0 -1
BITMAP
FFFFFFFE
FFFFFFFE
00000060
00000060
00000060
00000060
00000060
01F80060
07FE3C60
0F0F7E60
1C03E760
1801C3E0
178081E0
1FC080E0
1FC00060
1FC00060
0FC001E0
07800FE0
00003F60
0000F860
0003E060
000F8060
000FC060
0001E060
00007860
00003C60
00000E60
00000760
000003E0
000001E0
000000E0
000000E0
ENDCHAR
STARTCHAR C232
ENCODING 232
SWIDTH 700 0
DWIDTH 35 0
BBX 36 32 0 -1
BITMAP
FFFFFFFFF0
FFFFFFFFF0
0000030300
0000030300
0000030300
01F0030300
07FCFB0300
0F1FFF0300
1C078F0300
1803070300
1781070300
1FC1030300
1FC0030300
1FC0030300
0FC0030300
0780030300
0000030300
0000030300
0000030300
00000F0300
00001F8300
00003FE300
00003FF300
00003FFB00
00003F9F00
00001F0F00
00000E0700
0000000700
0000000700
0000000300
0000000300
0000000300
ENDCHAR
STARTCHAR C233
ENCODING 233
SWIDTH 620 0
DWIDTH 31 0
BBX 32 32 0 -1
BITMAP
FFFFFFFF
FFFFFFFF
00000030
00000030
00000030
01FC0030
07FF3E30
0F07FF30
1C01E3B0
1800C1F0
13C040F0
17E04070
1FE00030
1FE00030
0FE00030
07C00030
00000030
01FC0030
07FF3E30
0F07FF30
1C01E3B0
1800C1F0
13C040F0
17E04070
1FE00030
1FE00030
0FE00030
07C00030
00000030
00000030
00000030
00000010
ENDCHAR
STARTCHAR C234
ENCODING 234
SWIDTH 840 0
DWIDTH 42 0
BBX 43 32 0 0
BITMAP
000004000000
FE03C7FFFFE0
FF8FE7FFFFE0
0FDFF6000000
01FC36000000
00781E000000
01FE0F000000
03FF0F800000
07FF87C00000
07FF86F00000
0FFFC67C0000
0FFFC63F8000
0FCFC60FF800
07038603FC00
000006007E00
000006000600
000006000E00
000006000E00
000006001C00
000006001C00
000006003800
000006003800
000006007000
00000600F000
00000601E000
00000603C000
000006078000
0000021F0000
0000033E0000
000001F80000
000001F00000
000000C00000
ENDCHAR
STARTCHAR C235
ENCODING 235
SWIDTH 880 0
DWIDTH 44 0
BBX 45 33 0 -1
BITMAP
000001000000
FE01E1FFFFF8
FF87F1FFFFF8
0FCFF9800000
01FE1D800000
007C0F800000
00FF07C00000
01FF83E00000
03FFC1BFF800
03FFC18FFE00
07FFE181C300
07FFE1818100
07EFE1838180
0383C1838180
000001870380
0000018F0380
000000FE0700
0000007C0F00
000000001E00
000000007C00
00000003F800
0000003FE000
0000001F0000
000000060000
000000038000
00000000C000
000000006000
000000003000
000000001800
000000000C00
000000000600
000000000300
000000000180
ENDCHAR
STARTCHAR C236
ENCODING 236
SWIDTH 600 0
DWIDTH 30 0
BBX 31 33 0 -1
BITMAP
00000040
FF01F07E
FFC7F87E
0FEFFC60
00FE0E60
003C0760
00FF03E0
01FF81E0
03FFC0E0
03FFC060
07FFE060
07FFE060
07E7E060
0381C060
00000060
00000060
00000060
00000060
00000060
00000060
001FC060
003FF060
007FFC60
00FE3E60
00FE0760
00FE03E0
007C01E0
003800E0
000000E0
000000E0
00000060
00000060
00000060
ENDCHAR
STARTCHAR C237
ENCODING 237
SWIDTH 720 0
DWIDTH 36 0
BBX 37 33 0 -1
BITMAP
0000010000
FE01E1FFF8
FF87F1FFF8
0FCFF98180
01FE1D8180
007C0F8180
01FE078180
03FF038180
07FF818180
07FF818180
0FFFC18180
0FFFC18180
0FCFC18180
0703818180
0000018180
0000018180
0000018180
0000018180
0000018180
0000018180
00000F8180
00001F8180
00003FE180
00003FF180
00003FF980
00003FDD80
00001F8F80
00000F0780
0000000380
0000000380
0000000180
0000000180
0000000180
ENDCHAR
STARTCHAR C238
ENCODING 238
SWIDTH 600 0
DWIDTH 30 0
BBX 31 33 0 -1
BITMAP
00000040
FF01F07E
FFC7F87E
0FEFFC60
00FE0E60
003C0760
00FF03E0
01FF81E0
03FFC0E0
03FFC060
07FFE060
07FFE060
07E7E060
0381C060
00000060
00000060
00000060
00000060
007C0060
00FF3E60
01C7FF60
0381E3E0
0300C1E0
03E040E0
03F040E0
03F00060
03F00060
03F00060
01E00060
00000060
00000060
00000060
00000020
ENDCHAR
STARTCHAR C239
ENCODING 239
SWIDTH 600 0
DWIDTH 30 0
BBX 31 33 0 -1
BITMAP
00000040
FF01F07E
FFC7F87E
0FEFFC60
00FE0E60
003C0760
00FF03E0
01FF81E0
03FFC0E0
03FFC060
07FFE060
07FFE060
07E7E060
0381C060
00000060
00000060
00000060
000000E0
000007E0
00003FE0
0000FC60
0003E060
000F8060
000FC060
0001E060
00007860
00003C60
00000E60
00000760
000003E0
000001E0
000000E0
000000E0
ENDCHAR
STARTCHAR C240
ENCODING 240
SWIDTH 600 0
DWIDTH 30 0
BBX 31 32 0 -1
BITMAP
FFFFFFFE
FFFFFFFE
007FE000
01F83000
03C03000
07603000
0E303000
0C187000
1C0C6000
1806E000
1803E000
1807FC00
083FFF00
0FFF6780
07FC61C0
01F060C0
03C060E0
07006060
1E0061E0
1F8063E0
03E063E0
00F863E0
003C63E0
000E61C0
00076000
0003E000
0001E000
0000E000
0000E000
00006000
00006000
00006000
ENDCHAR
STARTCHAR C241
ENCODING 241
SWIDTH 820 0
DWIDTH 41 0
BBX 42 34 0 -3
BITMAP
FFFFFFFFFFC0
FFFFFFFFFFC0
003FF0000000
00FC18000000
01E018000000
03E018000000
073018000000
061838000000
0E0C30000000
0C067F800000
0C03FFE00000
0C03FC300000
041FF0300000
07FFE0300000
03F1C0300000
000380300000
01038033F000
0103F03FF800
0303F83C7C00
0303F830FE00
0201F830FE00
0201F830FE00
0200F0307C00
020000303800
030000300000
030000300000
018000300000
01C000300000
00FE00300000
007FFFF00000
003FFFF00000
0001FFF00000
000000300000
000000300000
ENDCHAR
STARTCHAR C242
ENCODING 242
SWIDTH 540 0
DWIDTH 27 0
BBX 28 47 0 -2
BITMAP
80000000
C0000000
60000000
38000000
1F000000
07FF8000
00FFF000
00007C00
00000E00
00000300
00000100
00000080
00000080
00000080
FFFFFFF0
FFFFFFF0
003FF000
00FC1800
01E01800
03C01800
07601800
0E303800
0C183000
1C0C7000
18066000
1802E000
1801C000
080F8000
0C3F0000
07FC0000
03F03C00
01E07E00
03C07F00
03807F00
07007F00
07003F00
06000700
06000700
06000600
06000E00
02000E00
03001C00
01803C00
01E07800
00FFF000
007FE000
001F8000
ENDCHAR
STARTCHAR C243
ENCODING 243
SWIDTH 600 0
DWIDTH 30 0
BBX 31 46 0 2
BITMAP
00038000
00078000
00070000
00060000
00060000
00060000
00060000
00060000
00060000
00060000
00060000
00060000
00020000
00030000
00030000
00030000
00010000
FFFFFFFE
FFFFFFFE
007FE000
01F0E000
03C0F000
0780D800
0EC0CC00
0C61C600
1C21C300
1833C180
181BC080
180F80C0
180F8040
087F8060
0FF70060
07C70060
000E0060
001E0060
003C0060
007800E0
01F000E0
01E001C0
018001C0
01800380
00800780
00C01F00
00607E00
003FFC00
000FE000
ENDCHAR
STARTCHAR C244
ENCODING 244
SWIDTH 800 0
DWIDTH 40 0
BBX 37 32 0 -1
BITMAP
FFFFFE0000
FFFFFE07C0
1C00061FE0
0700063830
0380066018
00E006C008
0070078008
0038070008
001C070008
001E060018
003F8601F0
0079C603E0
00F0E603E0
01E03E01F0
03C01E0018
0780070008
0F00070008
1E00078008
0F8006C008
01E0066018
0078063830
001C061FE0
00070607C0
0003860000
0000C60000
0000660000
0000360000
00001E0000
00000E0000
00000E0000
0000060000
0000020000
ENDCHAR
STARTCHAR C245
ENCODING 245
SWIDTH 880 0
DWIDTH 44 0
BBX 45 33 0 -1
BITMAP
000000000180
FFFE00FC01F8
FFFF83FF01F8
03E0CF81C180
0700DE006180
0E80F8007180
0CC0FE00F980
1C61E301E980
18318183CD80
181B80878780
180F00CF0380
181E00DE0180
087C00FC0180
0FF000F80180
07C001E00180
000003C00180
000003800180
000003000180
000000000180
000000000180
000000000180
000000000180
000000000180
000000000180
000000000180
000000000180
000000000180
000000000180
000000000180
000000000180
000000000180
000000000180
000000000080
ENDCHAR
STARTCHAR C246
ENCODING 246
SWIDTH 820 0
DWIDTH 41 0
BBX 42 32 0 -1
BITMAP
FFFFFFFFFFC0
FFFFFFFFFFC0
007F80000000
01F0C0000000
03C0C0000000
0780C007C000
0EC0C007F000
0C61C007F800
1C3180063C00
181BC0060C00
180F70060600
181E18060600
087C0C060200
0FF01C060200
07C03C060200
000038060600
000070063E00
0000F0067C00
0001E0067C00
0001C0067C00
000380063800
0001E0060000
000038060000
00000E060000
000003860000
000000C60000
000000660000
000000360000
0000001E0000
0000000E0000
0000000E0000
000000060000
ENDCHAR
STARTCHAR C247
ENCODING 247
SWIDTH 600 0
DWIDTH 30 0
BBX 31 32 0 -1
BITMAP
FFFFFFFE
FFFFFFFE
007FE060
01F83060
03C03060
07603060
0E303060
0C187060
1C0C6060
1806E060
1803C060
18078060
083F8060
0FFD8060
07E18060
00018060
00018060
001F8060
003FE060
007FF860
007FFC60
007F9E60
003F0760
001E0360
000001E0
000001E0
000000E0
000000E0
00000060
00000060
00000060
00000060
ENDCHAR
STARTCHAR C248
ENCODING 248
SWIDTH 740 0
DWIDTH 37 0
BBX 38 32 0 -1
BITMAP
FFFFFFFFFC
FFFFFFFFFC
000E003000
001F003800
001F001800
001F801C00
003D801C00
0038C01C00
1078601C00
18F0383C00
0FE00FF800
078003E000
000001FC00
000007FF00
00000F6780
00003C61C0
0000F860C0
0001E060E0
0003806060
0007806060
0007E06060
0000F863E0
00003C67E0
00000E67C0
00000767C0
000003E380
000001E000
000000E000
000000E000
0000006000
0000006000
0000006000
ENDCHAR
STARTCHAR C249
ENCODING 249
SWIDTH 840 0
DWIDTH 42 0
BBX 43 34 0 -3
BITMAP
FFFFFFFFFFE0
FFFFFFFFFFE0
000F00700000
000F00300000
001F80380000
001D80380000
003CC0380000
003860380000
187838780000
0FF00FF00000
03C00FC00000
00003FF00000
00007C180000
0000F0180000
0001E0180000
0001C0180000
00038019F800
0183F01FFC00
0183F81E3E00
0103F8187F00
0101F8187F00
0101F8187F00
0100F0183E00
010000181C00
018000180000
018000180000
00C000180000
00E000180000
007800180000
003FFFD80000
001FFFF80000
0007FFF80000
000000380000
000000180000
ENDCHAR
STARTCHAR C250
ENCODING 250
SWIDTH 740 0
DWIDTH 37 0
BBX 38 38 0 -7
BITMAP
FFFFFFFFFC
FFFFFFFFFC
000E003000
001F003800
001F001800
001F801C00
003D801C00
0038C01C00
1078601C00
18F0383C00
0FE00FF800
078003F000
0000003000
000001F800
000007FE00
00001F3F00
00007C3380
0001F03180
0003C031C0
0003F033C0
00007C37C0
00001E37C0
00000737C0
000003B7C0
000001F380
003F00F000
007FCF7000
00E1FFF000
00C079F000
00F830F000
00FC107000
00FC003000
00FC003000
00FC003000
0078003000
0000003000
0000003000
0000003000
ENDCHAR
STARTCHAR C251
ENCODING 251
SWIDTH 800 0
DWIDTH 40 0
BBX 41 33 0 -1
BITMAP
000000001800
FFFFFC001F80
FFFFFE001F80
003806001800
007C07001800
007C03001800
007C03801800
007E03801800
00F603801800
10E303801800
19E187801800
0FC0FF801800
07003DC01800
000001E01800
000001B01800
0000F1981800
0001FB0C1800
0001FB0C1800
0001FE0C1800
0001FC0C1800
0000F8181800
000000701800
000001E01800
000003801800
000007001800
000007E01800
000000F81800
0000001E1800
000000071800
00000001D800
00000000F800
000000003800
000000001800
ENDCHAR
STARTCHAR C252
ENCODING 252
SWIDTH 820 0
DWIDTH 41 0
BBX 42 45 0 0
BITMAP
002000000000
003000000000
001C00000000
000F80000000
0003F8000000
00007FFC0000
000007FFC000
00000003F000
000000003800
000000000C00
000000000400
000000000200
000000000200
000000000200
FFFFFFFFFFC0
FFFFFFFFFFC0
0F8007000000
0FC007000000
01E007000000
006007000000
003007000000
003007000000
001807000000
001807000000
000BC7000000
000FF700F000
000F1F01F800
001E0F01F800
103C0701F800
18780701F800
18F00700F800
0FE007003800
03C007003800
000007003000
000007007000
000007007000
00000700E000
00000700E000
00000701C000
00000603C000
000006078000
0000031F0000
000003FE0000
000001F80000
000000F00000
ENDCHAR
STARTCHAR C253
ENCODING 253
SWIDTH 680 0
DWIDTH 34 0
BBX 35 32 0 -1
BITMAP
FFFFFFFFE0
FFFFFFFFE0
0003C00600
0003C00700
0007E00300
0007600380
0007700380
000F300380
000E180380
141E0C0380
163C070780
1BF807FF00
1DE00FFC00
0C001FF800
06003FFC00
06003FCE00
03003FC600
03801F8200
01800F0300
00C0000300
00E0000100
0060000100
0030000100
0038000100
001C000300
000E000300
0007000600
0003C00E00
0001F03C00
0000FFF800
00003FF000
00000FC000
ENDCHAR
STARTCHAR C254
ENCODING 254
SWIDTH 600 0
DWIDTH 30 0
BBX 31 35 0 -4
BITMAP
FFFFFFFE
FFFFFFFE
003C0180
003C01C0
007C00C0
007E00E0
007600E0
007700E0
00F300E0
30E180E0
39E0C1E0
1FC07FC0
07007F00
0003FF80
000FFFC0
041F81C0
063C0060
067C0060
067E00E0
067E01E0
027E3FC0
033C7F80
03007F00
01007F80
01807FC0
01803CC0
00C00060
00C00060
00600060
003000E0
003801E0
001E07C0
000FFF80
0007FE00
0001F800
ENDCHAR
STARTCHAR C255
ENCODING 255
SWIDTH 640 0
DWIDTH 32 0
BBX 33 34 0 -3
BITMAP
FFFFFFFF80
FFFFFFFF80
000F007000
001F003000
001F803800
001D803800
003CC03800
0038603800
1878387800
0FF00FF000
03C01FC000
00007FF000
0000F81800
0001E01800
0003C01800
0003801800
0007001800
0407E01800
0407F01800
0C07F01800
0C07F01800
0803F01800
0801E01800
0800001800
0C00001800
0C00001800
0600001800
0700001800
03C0001800
01FFFF9800
00FFFFF800
003FFFF800
0000007800
0000001800
ENDCHAR
ENDFONT
